<?xml version="1.0" encoding="UTF-8"?>
<!DOCTYPE svg PUBLIC "-//W3C//DTD SVG 1.1//EN" "http://www.w3.org/Graphics/SVG/1.1/DTD/svg11.dtd">
<svg xmlns="http://www.w3.org/2000/svg" version="1.1" width="500px" height="500px" style="shape-rendering:geometricPrecision; text-rendering:geometricPrecision; image-rendering:optimizeQuality; fill-rule:evenodd; clip-rule:evenodd" xmlns:xlink="http://www.w3.org/1999/xlink">
<g><path style="opacity:1" fill="#2aae61" d="M 283.5,22.5 C 292.222,25.2375 301.222,27.2375 310.5,28.5C 312.438,30.1628 314.772,30.8294 317.5,30.5C 324.124,33.9337 331.124,36.6004 338.5,38.5C 339.492,38.3284 340.158,38.6618 340.5,39.5C 343.088,41.6246 346.088,42.9579 349.5,43.5C 352.678,46.2583 356.345,48.2583 360.5,49.5C 362.153,49.6596 363.486,50.3263 364.5,51.5C 364.973,52.9063 365.973,53.573 367.5,53.5C 368.492,53.3284 369.158,53.6618 369.5,54.5C 370.733,56.7964 372.733,58.1298 375.5,58.5C 375.973,59.9063 376.973,60.573 378.5,60.5C 378.973,61.9063 379.973,62.573 381.5,62.5C 382.035,64.4456 383.368,65.4456 385.5,65.5C 385.973,66.9063 386.973,67.573 388.5,67.5C 389.5,67.8333 390.167,68.5 390.5,69.5C 390.973,70.9063 391.973,71.573 393.5,71.5C 394.539,73.5311 396.205,74.8645 398.5,75.5C 399.833,76.1667 400.833,77.1667 401.5,78.5C 402.262,80.2624 403.596,81.2624 405.5,81.5C 405.833,83.8333 407.167,85.1667 409.5,85.5C 411.833,87.1667 413.833,89.1667 415.5,91.5C 416.757,94.4274 418.757,96.7607 421.5,98.5C 422.5,98.8333 423.167,99.5 423.5,100.5C 424.08,102.749 425.413,104.415 427.5,105.5C 428.08,107.749 429.413,109.415 431.5,110.5C 436.27,115.607 440.27,121.273 443.5,127.5C 443.427,129.027 444.094,130.027 445.5,130.5C 445.427,132.027 446.094,133.027 447.5,133.5C 480.117,188.879 488.783,247.879 473.5,310.5C 472.883,310.611 472.383,310.944 472,311.5C 471.505,313.473 471.338,315.473 471.5,317.5C 471.567,318.959 471.234,320.292 470.5,321.5C 468.023,323.416 467.023,326.083 467.5,329.5C 460.14,352.227 449.14,372.894 434.5,391.5C 433.5,391.5 432.5,391.5 431.5,391.5C 431.5,392.833 431.5,394.167 431.5,395.5C 430.557,398.109 428.89,400.109 426.5,401.5C 425.094,401.973 424.427,402.973 424.5,404.5C 422.5,407.167 420.167,409.5 417.5,411.5C 413.188,413.289 409.521,416.123 406.5,420C 407.598,420.77 407.598,421.603 406.5,422.5C 403.457,426.544 399.791,429.877 395.5,432.5C 394.577,431.697 393.577,431.53 392.5,432C 392.381,433.145 392.048,434.312 391.5,435.5C 382.741,443.388 373.074,450.055 362.5,455.5C 360.473,455.338 358.473,455.505 356.5,456C 353.414,458.872 349.747,460.706 345.5,461.5C 344.476,462.852 343.476,464.185 342.5,465.5C 340.447,465.402 338.78,466.069 337.5,467.5C 335.447,467.402 333.78,468.069 332.5,469.5C 330.62,469.229 329.287,469.896 328.5,471.5C 328.167,471.5 327.833,471.5 327.5,471.5C 323.793,471.792 320.293,472.792 317,474.5C 315.583,473.922 314.75,472.922 314.5,471.5C 317.089,470.581 319.089,468.914 320.5,466.5C 325.5,463.5 329.5,459.5 332.5,454.5C 333.496,454.586 334.329,454.252 335,453.5C 337.08,450.935 338.913,448.268 340.5,445.5C 342.587,444.415 343.92,442.749 344.5,440.5C 344.738,438.596 345.738,437.262 347.5,436.5C 348.906,436.027 349.573,435.027 349.5,433.5C 350.906,433.027 351.573,432.027 351.5,430.5C 352.906,430.027 353.573,429.027 353.5,427.5C 354.906,427.027 355.573,426.027 355.5,424.5C 355.328,423.508 355.662,422.842 356.5,422.5C 357.906,422.027 358.573,421.027 358.5,419.5C 361.093,417.992 362.426,415.659 362.5,412.5C 364.597,407.311 366.93,402.311 369.5,397.5C 372.469,395.38 373.802,392.38 373.5,388.5C 374.931,387.22 375.598,385.553 375.5,383.5C 377.397,381.302 378.397,378.636 378.5,375.5C 379.261,371.216 380.595,367.216 382.5,363.5C 384.163,361.562 384.829,359.228 384.5,356.5C 384.898,352.239 385.898,348.239 387.5,344.5C 389.118,341.829 389.785,338.829 389.5,335.5C 391.082,332.124 391.749,328.458 391.5,324.5C 391.448,322.097 391.781,319.764 392.5,317.5C 394.018,313.434 394.851,309.101 395,304.5C 395.667,287.5 395.667,270.5 395,253.5C 394.014,238.238 390.847,223.572 385.5,209.5C 384.262,207.786 383.595,205.786 383.5,203.5C 383.598,201.447 382.931,199.78 381.5,198.5C 381.598,196.447 380.931,194.78 379.5,193.5C 377.796,190.744 376.463,187.744 375.5,184.5C 375.715,182.821 375.048,181.821 373.5,181.5C 373.5,181.167 373.5,180.833 373.5,180.5C 373.759,178.011 372.759,176.344 370.5,175.5C 370.759,173.011 369.759,171.344 367.5,170.5C 366.094,170.027 365.427,169.027 365.5,167.5C 365.371,164.13 363.705,162.13 360.5,161.5C 358.863,159.525 357.196,157.525 355.5,155.5C 355.167,153.167 353.833,151.833 351.5,151.5C 351.167,150.833 350.833,150.167 350.5,149.5C 347.437,145.434 343.771,142.101 339.5,139.5C 337.596,139.262 336.262,138.262 335.5,136.5C 334.738,134.738 333.404,133.738 331.5,133.5C 331.027,132.094 330.027,131.427 328.5,131.5C 328.027,130.094 327.027,129.427 325.5,129.5C 323.285,124.971 319.618,122.971 314.5,123.5C 309.978,121.736 305.645,119.736 301.5,117.5C 297.37,114.676 292.703,113.009 287.5,112.5C 284.572,112.435 281.905,111.768 279.5,110.5C 279.389,109.883 279.056,109.383 278.5,109C 275.518,108.502 272.518,108.335 269.5,108.5C 253.122,106.954 236.788,107.287 220.5,109.5C 216.694,109.412 213.028,110.079 209.5,111.5C 208.707,111.069 207.873,110.735 207,110.5C 204.112,112.208 201.279,113.874 198.5,115.5C 195.351,115.415 192.684,116.415 190.5,118.5C 187.246,118.794 184.579,120.127 182.5,122.5C 178.517,121.572 175.85,122.905 174.5,126.5C 172.973,126.427 171.973,127.094 171.5,128.5C 164.524,133.802 157.524,139.136 150.5,144.5C 149.577,143.697 148.577,143.53 147.5,144C 145,146.5 142.5,149 140,151.5C 139.51,152.793 139.343,154.127 139.5,155.5C 126.993,170.185 117.327,186.518 110.5,204.5C 108.52,205.848 107.353,207.848 107,210.5C 105.364,215.375 104.531,220.375 104.5,225.5C 98.5523,262.487 104.886,297.154 123.5,329.5C 123.427,331.027 124.094,332.027 125.5,332.5C 127.218,334.223 128.551,336.223 129.5,338.5C 129.738,340.404 130.738,341.738 132.5,342.5C 133.08,344.749 134.413,346.415 136.5,347.5C 137.5,347.833 138.167,348.5 138.5,349.5C 141.5,354.5 145.5,358.5 150.5,361.5C 151.5,361.833 152.167,362.5 152.5,363.5C 153.262,365.262 154.596,366.262 156.5,366.5C 157.035,368.446 158.368,369.446 160.5,369.5C 161.035,371.446 162.368,372.446 164.5,372.5C 165.733,374.796 167.733,376.13 170.5,376.5C 170.973,377.906 171.973,378.573 173.5,378.5C 174.262,382.297 176.262,383.297 179.5,381.5C 182.247,384.207 185.58,385.873 189.5,386.5C 194.667,389.668 200.334,391.668 206.5,392.5C 213.411,395.477 220.744,397.31 228.5,398C 239.674,398.826 250.674,398.659 261.5,397.5C 267.21,397.529 272.877,397.029 278.5,396C 279.416,395.722 280.082,395.222 280.5,394.5C 282.905,393.232 285.572,392.565 288.5,392.5C 290.199,392.66 291.866,392.494 293.5,392C 296.859,390.953 299.859,389.453 302.5,387.5C 303.93,386.463 305.597,385.796 307.5,385.5C 311.748,385.376 315.082,383.71 317.5,380.5C 321.044,379.888 324.377,378.721 327.5,377C 328.305,375.887 328.972,374.721 329.5,373.5C 329.973,372.094 330.973,371.427 332.5,371.5C 333.833,371.5 334.5,372.167 334.5,373.5C 327.999,390.319 318.333,404.986 305.5,417.5C 301.409,417.893 299.743,419.893 300.5,423.5C 296.058,428.284 291.058,432.284 285.5,435.5C 284.127,435.343 282.793,435.51 281.5,436C 282.598,436.77 282.598,437.603 281.5,438.5C 281.027,439.906 280.027,440.573 278.5,440.5C 276.801,440.34 275.134,440.506 273.5,441C 270.833,442.833 268.167,444.667 265.5,446.5C 262.093,447.636 258.759,448.969 255.5,450.5C 254.702,450.957 254.369,451.624 254.5,452.5C 249.68,454.323 245.013,456.323 240.5,458.5C 237.772,458.171 235.438,458.837 233.5,460.5C 230.727,461.657 227.727,462.324 224.5,462.5C 220.21,462.198 216.21,462.864 212.5,464.5C 211.833,464.5 211.167,464.5 210.5,464.5C 196.819,464.618 183.152,464.284 169.5,463.5C 166.155,461.783 162.489,461.116 158.5,461.5C 156.901,461.768 155.568,461.434 154.5,460.5C 149.5,458.057 144.166,456.39 138.5,455.5C 136.165,452.835 133.165,451.502 129.5,451.5C 125.849,450.341 122.515,448.674 119.5,446.5C 118.172,442.83 115.505,441.163 111.5,441.5C 109.596,441.262 108.262,440.262 107.5,438.5C 107.027,437.094 106.027,436.427 104.5,436.5C 103.089,434.086 101.089,432.419 98.5,431.5C 97.4154,429.413 95.7488,428.08 93.5,427.5C 92.5,427.167 91.8333,426.5 91.5,425.5C 87.7731,420.77 83.4397,416.77 78.5,413.5C 78.2671,411.938 77.6005,410.605 76.5,409.5C 76.5,408.5 76.5,407.5 76.5,406.5C 74.1791,405.523 71.8458,404.523 69.5,403.5C 69.5,403.167 69.5,402.833 69.5,402.5C 69.6107,401.883 69.944,401.383 70.5,401C 69.1667,400 67.8333,399 66.5,398C 66.9574,397.586 67.2907,397.086 67.5,396.5C 63.7476,390.664 60.2476,384.664 57,378.5C 56.3828,379.449 56.5494,380.282 57.5,381C 56.4734,381.513 55.4734,382.013 54.5,382.5C 51.4208,379.35 49.0875,375.683 47.5,371.5C 47.7593,369.011 46.7593,367.344 44.5,366.5C 43.3263,365.486 42.6596,364.153 42.5,362.5C 42.7593,360.011 41.7593,358.344 39.5,357.5C 37.9925,355.819 36.9925,353.819 36.5,351.5C 36.2927,348.759 35.2927,346.426 33.5,344.5C 33.5979,342.447 32.9313,340.78 31.5,339.5C 31.5979,337.447 30.9313,335.78 29.5,334.5C 28.596,333.791 28.2627,332.791 28.5,331.5C 26.2032,322.287 23.5365,313.287 20.5,304.5C 19.5489,303.081 19.2155,301.415 19.5,299.5C 18.2308,288.351 16.8975,277.351 15.5,266.5C 14.3083,257.491 14.3083,248.491 15.5,239.5C 16.7071,232.361 17.3738,225.028 17.5,217.5C 17.9586,210.54 19.2919,203.873 21.5,197.5C 23.1628,195.562 23.8294,193.228 23.5,190.5C 25.68,187.619 26.68,184.286 26.5,180.5C 26.2627,179.209 26.596,178.209 27.5,177.5C 29.3969,175.302 30.3969,172.636 30.5,169.5C 33.7773,166.267 35.444,162.267 35.5,157.5C 35.6596,155.847 36.3263,154.514 37.5,153.5C 41.9616,149.583 44.6283,144.583 45.5,138.5C 48.7766,136.97 50.1099,134.637 49.5,131.5C 50.9063,131.027 51.573,130.027 51.5,128.5C 51.3284,127.508 51.6618,126.842 52.5,126.5C 53.9063,126.027 54.573,125.027 54.5,123.5C 56.2624,122.738 57.2624,121.404 57.5,119.5C 58.9063,119.027 59.573,118.027 59.5,116.5C 61.2624,115.738 62.2624,114.404 62.5,112.5C 64.2624,111.738 65.2624,110.404 65.5,108.5C 66.4194,105.911 68.086,103.911 70.5,102.5C 72.5869,101.415 73.9202,99.7488 74.5,97.5C 74.8333,96.5 75.5,95.8333 76.5,95.5C 81.5,91.1667 86.1667,86.5 90.5,81.5C 90.8333,80.5 91.5,79.8333 92.5,79.5C 95.0892,78.5806 97.0892,76.914 98.5,74.5C 100.749,73.9202 102.415,72.5869 103.5,70.5C 105.749,69.9202 107.415,68.5869 108.5,66.5C 110.296,64.1 112.63,62.4333 115.5,61.5C 117.404,61.2624 118.738,60.2624 119.5,58.5C 121.989,58.7593 123.656,57.7593 124.5,55.5C 126.027,55.573 127.027,54.9063 127.5,53.5C 129.027,53.573 130.027,52.9063 130.5,51.5C 134.036,50.1544 137.702,49.1544 141.5,48.5C 141.5,47.5 141.5,46.5 141.5,45.5C 142.514,44.3263 143.847,43.6596 145.5,43.5C 150.506,42.8285 154.839,40.8285 158.5,37.5C 159.93,36.4625 161.597,35.7959 163.5,35.5C 170.767,33.7444 177.767,31.4111 184.5,28.5C 187.228,28.8294 189.562,28.1628 191.5,26.5C 194.219,25.087 197.219,24.4203 200.5,24.5C 204.489,24.8836 208.155,24.217 211.5,22.5C 217.069,22.624 222.402,21.9573 227.5,20.5C 240.327,19.3398 253.327,19.1731 266.5,20C 272.384,20.3152 278.051,21.1485 283.5,22.5 Z"/></g>
<g><path style="opacity:0.688" fill="#a6ddbd" d="M 227.5,20.5 C 222.402,21.9573 217.069,22.624 211.5,22.5C 216.598,21.0427 221.931,20.376 227.5,20.5 Z"/></g>
<g><path style="opacity:0.886" fill="#98d7b1" d="M 211.5,22.5 C 208.155,24.217 204.489,24.8836 200.5,24.5C 203.909,23.0966 207.575,22.4299 211.5,22.5 Z"/></g>
<g><path style="opacity:0.337" fill="#b4e2c6" d="M 283.5,22.5 C 292.853,23.4246 301.853,25.4246 310.5,28.5C 301.222,27.2375 292.222,25.2375 283.5,22.5 Z"/></g>
<g><path style="opacity:0.835" fill="#9dd9b5" d="M 191.5,26.5 C 189.562,28.1628 187.228,28.8294 184.5,28.5C 186.515,27.0762 188.848,26.4095 191.5,26.5 Z"/></g>
<g><path style="opacity:0.557" fill="#a9debe" d="M 310.5,28.5 C 313.067,28.7215 315.401,29.3882 317.5,30.5C 314.772,30.8294 312.438,30.1628 310.5,28.5 Z"/></g>
<g><path style="opacity:0.655" fill="#a4dcba" d="M 184.5,28.5 C 177.767,31.4111 170.767,33.7444 163.5,35.5C 170.085,32.1937 177.085,29.8604 184.5,28.5 Z"/></g>
<g><path style="opacity:0.388" fill="#b9e5cb" d="M 317.5,30.5 C 324.888,32.3693 331.888,35.036 338.5,38.5C 331.124,36.6004 324.124,33.9337 317.5,30.5 Z"/></g>
<g><path style="opacity:0.996" fill="#80ce9d" d="M 158.5,37.5 C 154.839,40.8285 150.506,42.8285 145.5,43.5C 149.405,40.7164 153.738,38.7164 158.5,37.5 Z"/></g>
<g><path style="opacity:0.4" fill="#b2e2c5" d="M 340.5,39.5 C 343.912,40.0421 346.912,41.3754 349.5,43.5C 346.088,42.9579 343.088,41.6246 340.5,39.5 Z"/></g>
<g><path style="opacity:0.369" fill="#b4e3c6" d="M 349.5,43.5 C 353.655,44.7417 357.322,46.7417 360.5,49.5C 356.345,48.2583 352.678,46.2583 349.5,43.5 Z"/></g>
<g><path style="opacity:1" fill="#76ca93" d="M 141.5,45.5 C 141.5,46.5 141.5,47.5 141.5,48.5C 137.702,49.1544 134.036,50.1544 130.5,51.5C 133.678,48.7417 137.345,46.7417 141.5,45.5 Z"/></g>
<g><path style="opacity:0.592" fill="#afe0c3" d="M 130.5,51.5 C 130.027,52.9063 129.027,53.573 127.5,53.5C 127.973,52.0937 128.973,51.427 130.5,51.5 Z"/></g>
<g><path style="opacity:0.224" fill="#c4e9d2" d="M 364.5,51.5 C 366.027,51.427 367.027,52.0937 367.5,53.5C 365.973,53.573 364.973,52.9063 364.5,51.5 Z"/></g>
<g><path style="opacity:0.675" fill="#9ad9b4" d="M 127.5,53.5 C 127.027,54.9063 126.027,55.573 124.5,55.5C 124.973,54.0937 125.973,53.427 127.5,53.5 Z"/></g>
<g><path style="opacity:0.933" fill="#a1dab6" d="M 369.5,54.5 C 371.882,55.3507 373.882,56.684 375.5,58.5C 372.733,58.1298 370.733,56.7964 369.5,54.5 Z"/></g>
<g><path style="opacity:1" fill="#7ece9b" d="M 124.5,55.5 C 123.656,57.7593 121.989,58.7593 119.5,58.5C 120.659,56.7497 122.326,55.7497 124.5,55.5 Z"/></g>
<g><path style="opacity:0.592" fill="#a1dbb8" d="M 119.5,58.5 C 118.738,60.2624 117.404,61.2624 115.5,61.5C 116.262,59.7376 117.596,58.7376 119.5,58.5 Z"/></g>
<g><path style="opacity:0.196" fill="#c5e9d3" d="M 375.5,58.5 C 377.027,58.427 378.027,59.0937 378.5,60.5C 376.973,60.573 375.973,59.9063 375.5,58.5 Z"/></g>
<g><path style="opacity:0.149" fill="#cbecd8" d="M 378.5,60.5 C 380.027,60.427 381.027,61.0937 381.5,62.5C 379.973,62.573 378.973,61.9063 378.5,60.5 Z"/></g>
<g><path style="opacity:0.62" fill="#9ed9b4" d="M 381.5,62.5 C 383.23,63.0256 384.564,64.0256 385.5,65.5C 383.368,65.4456 382.035,64.4456 381.5,62.5 Z"/></g>
<g><path style="opacity:0.008" fill="#d1eedc" d="M 385.5,65.5 C 387.027,65.427 388.027,66.0937 388.5,67.5C 386.973,67.573 385.973,66.9063 385.5,65.5 Z"/></g>
<g><path style="opacity:0.925" fill="#85d0a2" d="M 108.5,66.5 C 107.415,68.5869 105.749,69.9202 103.5,70.5C 104.585,68.4131 106.251,67.0798 108.5,66.5 Z"/></g>
<g><path style="opacity:0.035" fill="#c8ead5" d="M 390.5,69.5 C 392.027,69.427 393.027,70.0937 393.5,71.5C 391.973,71.573 390.973,70.9063 390.5,69.5 Z"/></g>
<g><path style="opacity:0.933" fill="#82cfa0" d="M 103.5,70.5 C 102.415,72.5869 100.749,73.9202 98.5,74.5C 99.5846,72.4131 101.251,71.0798 103.5,70.5 Z"/></g>
<g><path style="opacity:0.494" fill="#b1e1c3" d="M 393.5,71.5 C 395.754,72.1237 397.421,73.457 398.5,75.5C 396.205,74.8645 394.539,73.5311 393.5,71.5 Z"/></g>
<g><path style="opacity:0.776" fill="#96d7af" d="M 98.5,74.5 C 97.0892,76.914 95.0892,78.5806 92.5,79.5C 93.9108,77.086 95.9108,75.4194 98.5,74.5 Z"/></g>
<g><path style="opacity:0.02" fill="#d1eedc" d="M 401.5,78.5 C 403.404,78.7376 404.738,79.7376 405.5,81.5C 403.596,81.2624 402.262,80.2624 401.5,78.5 Z"/></g>
<g><path style="opacity:0.655" fill="#afe1c2" d="M 405.5,81.5 C 407.167,82.5 408.5,83.8333 409.5,85.5C 407.167,85.1667 405.833,83.8333 405.5,81.5 Z"/></g>
<g><path style="opacity:0.612" fill="#b2e2c5" d="M 90.5,81.5 C 86.1667,86.5 81.5,91.1667 76.5,95.5C 80.1667,89.8333 84.8333,85.1667 90.5,81.5 Z"/></g>
<g><path style="opacity:0.647" fill="#b2e2c3" d="M 415.5,91.5 C 418.243,93.2393 420.243,95.5726 421.5,98.5C 418.757,96.7607 416.757,94.4274 415.5,91.5 Z"/></g>
<g><path style="opacity:0.592" fill="#ade0c0" d="M 74.5,97.5 C 73.9202,99.7488 72.5869,101.415 70.5,102.5C 71.0798,100.251 72.4131,98.5846 74.5,97.5 Z"/></g>
<g><path style="opacity:0.812" fill="#a2dbb7" d="M 423.5,100.5 C 425.587,101.585 426.92,103.251 427.5,105.5C 425.413,104.415 424.08,102.749 423.5,100.5 Z"/></g>
<g><path style="opacity:0.969" fill="#85d0a1" d="M 269.5,108.5 C 272.518,108.335 275.518,108.502 278.5,109C 279.056,109.383 279.389,109.883 279.5,110.5C 275.96,110.247 272.627,109.581 269.5,108.5 Z"/></g>
<g><path style="opacity:0.627" fill="#9edab4" d="M 427.5,105.5 C 429.587,106.585 430.92,108.251 431.5,110.5C 429.413,109.415 428.08,107.749 427.5,105.5 Z"/></g>
<g><path style="opacity:0.824" fill="#9fdab5" d="M 65.5,108.5 C 65.2624,110.404 64.2624,111.738 62.5,112.5C 62.7376,110.596 63.7376,109.262 65.5,108.5 Z"/></g>
<g><path style="opacity:1" fill="#8cd3a5" d="M 220.5,109.5 C 213.322,111.664 205.989,113.664 198.5,115.5C 201.279,113.874 204.112,112.208 207,110.5C 207.873,110.735 208.707,111.069 209.5,111.5C 213.028,110.079 216.694,109.412 220.5,109.5 Z"/></g>
<g><path style="opacity:0.655" fill="#aadfbf" d="M 287.5,112.5 C 292.703,113.009 297.37,114.676 301.5,117.5C 296.607,116.204 291.94,114.538 287.5,112.5 Z"/></g>
<g><path style="opacity:0.831" fill="#9edab4" d="M 62.5,112.5 C 62.2624,114.404 61.2624,115.738 59.5,116.5C 59.7376,114.596 60.7376,113.262 62.5,112.5 Z"/></g>
<g><path style="opacity:0.627" fill="#a2dcb9" d="M 198.5,115.5 C 196.11,117.02 193.443,118.02 190.5,118.5C 192.684,116.415 195.351,115.415 198.5,115.5 Z"/></g>
<g><path style="opacity:0.529" fill="#9ed9b4" d="M 59.5,116.5 C 59.573,118.027 58.9063,119.027 57.5,119.5C 57.427,117.973 58.0937,116.973 59.5,116.5 Z"/></g>
<g><path style="opacity:0.537" fill="#acdfc0" d="M 190.5,118.5 C 188.151,120.341 185.485,121.674 182.5,122.5C 184.579,120.127 187.246,118.794 190.5,118.5 Z"/></g>
<g><path style="opacity:0.592" fill="#a4dcba" d="M 57.5,119.5 C 57.2624,121.404 56.2624,122.738 54.5,123.5C 54.7376,121.596 55.7376,120.262 57.5,119.5 Z"/></g>
<g><path style="opacity:1" fill="#80cd9b" d="M 182.5,122.5 C 180.151,124.341 177.485,125.674 174.5,126.5C 175.85,122.905 178.517,121.572 182.5,122.5 Z"/></g>
<g><path style="opacity:1" fill="#6dc68c" d="M 314.5,123.5 C 319.618,122.971 323.285,124.971 325.5,129.5C 321.665,127.75 317.999,125.75 314.5,123.5 Z"/></g>
<g><path style="opacity:0.318" fill="#c0e7cf" d="M 54.5,123.5 C 54.573,125.027 53.9063,126.027 52.5,126.5C 52.427,124.973 53.0937,123.973 54.5,123.5 Z"/></g>
<g><path style="opacity:0.051" fill="#c3e9d2" d="M 174.5,126.5 C 174.027,127.906 173.027,128.573 171.5,128.5C 171.973,127.094 172.973,126.427 174.5,126.5 Z"/></g>
<g><path style="opacity:0.541" fill="#9ad8b2" d="M 443.5,127.5 C 444.906,127.973 445.573,128.973 445.5,130.5C 444.094,130.027 443.427,129.027 443.5,127.5 Z"/></g>
<g><path style="opacity:0.459" fill="#a9debe" d="M 51.5,128.5 C 51.573,130.027 50.9063,131.027 49.5,131.5C 49.427,129.973 50.0937,128.973 51.5,128.5 Z"/></g>
<g><path style="opacity:0.553" fill="#9edab5" d="M 325.5,129.5 C 327.027,129.427 328.027,130.094 328.5,131.5C 326.973,131.573 325.973,130.906 325.5,129.5 Z"/></g>
<g><path style="opacity:0.553" fill="#9edab5" d="M 328.5,131.5 C 330.027,131.427 331.027,132.094 331.5,133.5C 329.973,133.573 328.973,132.906 328.5,131.5 Z"/></g>
<g><path style="opacity:0.38" fill="#afe0c2" d="M 445.5,130.5 C 446.906,130.973 447.573,131.973 447.5,133.5C 446.094,133.027 445.427,132.027 445.5,130.5 Z"/></g>
<g><path style="opacity:0.624" fill="#9fdbb6" d="M 331.5,133.5 C 333.404,133.738 334.738,134.738 335.5,136.5C 333.596,136.262 332.262,135.262 331.5,133.5 Z"/></g>
<g><path style="opacity:1" fill="#80cd9a" d="M 49.5,131.5 C 50.1099,134.637 48.7766,136.97 45.5,138.5C 46.0787,135.669 47.412,133.336 49.5,131.5 Z"/></g>
<g><path style="opacity:1" fill="#72c88f" d="M 150.5,144.5 C 147.167,148.5 143.5,152.167 139.5,155.5C 139.343,154.127 139.51,152.793 140,151.5C 142.5,149 145,146.5 147.5,144C 148.577,143.53 149.577,143.697 150.5,144.5 Z"/></g>
<g><path style="opacity:0.51" fill="#b1e1c3" d="M 339.5,139.5 C 343.771,142.101 347.437,145.434 350.5,149.5C 346.229,146.899 342.563,143.566 339.5,139.5 Z"/></g>
<g><path style="opacity:1" fill="#76c992" d="M 45.5,138.5 C 44.6283,144.583 41.9616,149.583 37.5,153.5C 39.4068,148.016 42.0734,143.016 45.5,138.5 Z"/></g>
<g><path style="opacity:0.51" fill="#c6e9d4" d="M 351.5,151.5 C 353.833,151.833 355.167,153.167 355.5,155.5C 353.833,154.5 352.5,153.167 351.5,151.5 Z"/></g>
<g><path style="opacity:1" fill="#84ce9d" d="M 360.5,161.5 C 363.705,162.13 365.371,164.13 365.5,167.5C 363.367,165.909 361.701,163.909 360.5,161.5 Z"/></g>
<g><path style="opacity:1" fill="#8bd1a2" d="M 35.5,157.5 C 35.444,162.267 33.7773,166.267 30.5,169.5C 31.6483,165.213 33.315,161.213 35.5,157.5 Z"/></g>
<g><path style="opacity:0.992" fill="#8ad1a2" d="M 367.5,170.5 C 369.759,171.344 370.759,173.011 370.5,175.5C 369.11,174.101 368.11,172.434 367.5,170.5 Z"/></g>
<g><path style="opacity:0.925" fill="#b3e1c2" d="M 30.5,169.5 C 30.3969,172.636 29.3969,175.302 27.5,177.5C 27.7329,174.458 28.7329,171.792 30.5,169.5 Z"/></g>
<g><path style="opacity:1" fill="#8cd2a3" d="M 370.5,175.5 C 372.759,176.344 373.759,178.011 373.5,180.5C 372.11,179.101 371.11,177.434 370.5,175.5 Z"/></g>
<g><path style="opacity:0.933" fill="#9cd8b0" d="M 373.5,181.5 C 375.048,181.821 375.715,182.821 375.5,184.5C 374.599,183.71 373.932,182.71 373.5,181.5 Z"/></g>
<g><path style="opacity:0.894" fill="#b5e2c5" d="M 26.5,180.5 C 26.68,184.286 25.68,187.619 23.5,190.5C 23.7234,186.838 24.7234,183.505 26.5,180.5 Z"/></g>
<g><path style="opacity:0.667" fill="#c2e8d0" d="M 23.5,190.5 C 23.8294,193.228 23.1628,195.562 21.5,197.5C 21.4095,194.848 22.0762,192.515 23.5,190.5 Z"/></g>
<g><path style="opacity:0.055" fill="#e1f3e8" d="M 379.5,193.5 C 380.931,194.78 381.598,196.447 381.5,198.5C 380.069,197.22 379.402,195.553 379.5,193.5 Z"/></g>
<g><path style="opacity:0.118" fill="#e0f3e8" d="M 381.5,198.5 C 382.931,199.78 383.598,201.447 383.5,203.5C 382.069,202.22 381.402,200.553 381.5,198.5 Z"/></g>
<g><path style="opacity:0.99" fill="#7aca95" d="M 110.5,204.5 C 108.634,211.644 106.634,218.644 104.5,225.5C 104.531,220.375 105.364,215.375 107,210.5C 107.353,207.848 108.52,205.848 110.5,204.5 Z"/></g>
<g><path style="opacity:0.616" fill="#c1e7d0" d="M 17.5,217.5 C 17.3738,225.028 16.7071,232.361 15.5,239.5C 15.2279,231.937 15.8945,224.603 17.5,217.5 Z"/></g>
<g><path style="opacity:0.02" fill="#e6f5ec" d="M 385.5,209.5 C 390.847,223.572 394.014,238.238 395,253.5C 395.667,270.5 395.667,287.5 395,304.5C 394.851,309.101 394.018,313.434 392.5,317.5C 397.036,281.013 394.703,245.013 385.5,209.5 Z"/></g>
<g><path style="opacity:0.039" fill="#ddf2e5" d="M 15.5,266.5 C 16.8975,277.351 18.2308,288.351 19.5,299.5C 16.6241,288.822 15.2908,277.822 15.5,266.5 Z"/></g>
<g><path style="opacity:0.004" fill="#e4f5ea" d="M 20.5,304.5 C 23.5365,313.287 26.2032,322.287 28.5,331.5C 24.6525,322.948 21.9858,313.948 20.5,304.5 Z"/></g>
<g><path style="opacity:0.998" fill="#7ecc99" d="M 473.5,310.5 C 473.279,313.067 472.612,315.401 471.5,317.5C 471.338,315.473 471.505,313.473 472,311.5C 472.383,310.944 472.883,310.611 473.5,310.5 Z"/></g>
<g><path style="opacity:1" fill="#81cd9a" d="M 470.5,321.5 C 470.267,324.542 469.267,327.208 467.5,329.5C 467.023,326.083 468.023,323.416 470.5,321.5 Z"/></g>
<g><path style="opacity:0.408" fill="#b1e1c3" d="M 123.5,329.5 C 124.906,329.973 125.573,330.973 125.5,332.5C 124.094,332.027 123.427,331.027 123.5,329.5 Z"/></g>
<g><path style="opacity:0.027" fill="#e7f5ed" d="M 391.5,324.5 C 391.749,328.458 391.082,332.124 389.5,335.5C 389.646,331.613 390.313,327.946 391.5,324.5 Z"/></g>
<g><path style="opacity:0.125" fill="#def3e6" d="M 29.5,334.5 C 30.9313,335.78 31.5979,337.447 31.5,339.5C 30.0687,338.22 29.4021,336.553 29.5,334.5 Z"/></g>
<g><path style="opacity:0.784" fill="#9fdab5" d="M 129.5,338.5 C 131.262,339.262 132.262,340.596 132.5,342.5C 130.738,341.738 129.738,340.404 129.5,338.5 Z"/></g>
<g><path style="opacity:0.033" fill="#e4f5eb" d="M 389.5,335.5 C 389.785,338.829 389.118,341.829 387.5,344.5C 387.676,341.273 388.343,338.273 389.5,335.5 Z"/></g>
<g><path style="opacity:0.157" fill="#d8f0e2" d="M 31.5,339.5 C 32.9313,340.78 33.5979,342.447 33.5,344.5C 32.0687,343.22 31.4021,341.553 31.5,339.5 Z"/></g>
<g><path style="opacity:0.01" fill="#e6f6ec" d="M 33.5,344.5 C 35.2927,346.426 36.2927,348.759 36.5,351.5C 34.7073,349.574 33.7073,347.241 33.5,344.5 Z"/></g>
<g><path style="opacity:0.525" fill="#abdfbf" d="M 132.5,342.5 C 134.587,343.585 135.92,345.251 136.5,347.5C 134.413,346.415 133.08,344.749 132.5,342.5 Z"/></g>
<g><path style="opacity:0.8" fill="#ace0bf" d="M 138.5,349.5 C 142.833,353.167 146.833,357.167 150.5,361.5C 145.5,358.5 141.5,354.5 138.5,349.5 Z"/></g>
<g><path style="opacity:1" fill="#98d6ab" d="M 39.5,357.5 C 41.7593,358.344 42.7593,360.011 42.5,362.5C 40.7497,361.341 39.7497,359.674 39.5,357.5 Z"/></g>
<g><path style="opacity:0.741" fill="#bce5cb" d="M 384.5,356.5 C 384.829,359.228 384.163,361.562 382.5,363.5C 382.41,360.848 383.076,358.515 384.5,356.5 Z"/></g>
<g><path style="opacity:0.02" fill="#cbebd8" d="M 152.5,363.5 C 154.404,363.738 155.738,364.738 156.5,366.5C 154.596,366.262 153.262,365.262 152.5,363.5 Z"/></g>
<g><path style="opacity:1" fill="#93d4a7" d="M 44.5,366.5 C 46.7593,367.344 47.7593,369.011 47.5,371.5C 45.7497,370.341 44.7497,368.674 44.5,366.5 Z"/></g>
<g><path style="opacity:0.494" fill="#afe0c1" d="M 156.5,366.5 C 158.23,367.026 159.564,368.026 160.5,369.5C 158.368,369.446 157.035,368.446 156.5,366.5 Z"/></g>
<g><path style="opacity:0.533" fill="#acdfbf" d="M 160.5,369.5 C 162.23,370.026 163.564,371.026 164.5,372.5C 162.368,372.446 161.035,371.446 160.5,369.5 Z"/></g>
<g><path style="opacity:0.69" fill="#8cd2a6" d="M 334.5,373.5 C 334.5,372.167 333.833,371.5 332.5,371.5C 333.465,368.915 334.799,368.415 336.5,370C 336.192,371.459 335.525,372.626 334.5,373.5 Z"/></g>
<g><path style="opacity:0.945" fill="#a1dbb6" d="M 164.5,372.5 C 166.882,373.351 168.882,374.684 170.5,376.5C 167.733,376.13 165.733,374.796 164.5,372.5 Z"/></g>
<g><path style="opacity:0.251" fill="#bfe7cf" d="M 170.5,376.5 C 172.027,376.427 173.027,377.094 173.5,378.5C 171.973,378.573 170.973,377.906 170.5,376.5 Z"/></g>
<g><path style="opacity:1" fill="#78cb96" d="M 329.5,373.5 C 328.972,374.721 328.305,375.887 327.5,377C 324.377,378.721 321.044,379.888 317.5,380.5C 321.164,377.665 325.164,375.332 329.5,373.5 Z"/></g>
<g><path style="opacity:1" fill="#89d0a0" d="M 173.5,378.5 C 175.819,378.992 177.819,379.992 179.5,381.5C 176.262,383.297 174.262,382.297 173.5,378.5 Z"/></g>
<g><path style="opacity:0.827" fill="#b9e3c8" d="M 378.5,375.5 C 378.397,378.636 377.397,381.302 375.5,383.5C 375.733,380.458 376.733,377.792 378.5,375.5 Z"/></g>
<g><path style="opacity:0.294" fill="#bbe5cc" d="M 179.5,381.5 C 183.151,382.659 186.485,384.326 189.5,386.5C 185.58,385.873 182.247,384.207 179.5,381.5 Z"/></g>
<g><path style="opacity:0.969" fill="#7bcb98" d="M 317.5,380.5 C 315.082,383.71 311.748,385.376 307.5,385.5C 310.515,383.326 313.849,381.659 317.5,380.5 Z"/></g>
<g><path style="opacity:0.047" fill="#e5f5eb" d="M 375.5,383.5 C 375.598,385.553 374.931,387.22 373.5,388.5C 373.402,386.447 374.069,384.78 375.5,383.5 Z"/></g>
<g><path style="opacity:0.357" fill="#bae5cb" d="M 189.5,386.5 C 195.381,388.125 201.047,390.125 206.5,392.5C 200.334,391.668 194.667,389.668 189.5,386.5 Z"/></g>
<g><path style="opacity:0.769" fill="#98d8b1" d="M 302.5,387.5 C 299.859,389.453 296.859,390.953 293.5,392C 291.866,392.494 290.199,392.66 288.5,392.5C 292.94,390.462 297.607,388.796 302.5,387.5 Z"/></g>
<g><path style="opacity:1" fill="#5fc183" d="M 69.5,402.5 C 63.5294,396.557 58.5294,389.891 54.5,382.5C 55.4734,382.013 56.4734,381.513 57.5,381C 56.5494,380.282 56.3828,379.449 57,378.5C 60.2476,384.664 63.7476,390.664 67.5,396.5C 67.2907,397.086 66.9574,397.586 66.5,398C 67.8333,399 69.1667,400 70.5,401C 69.944,401.383 69.6107,401.883 69.5,402.5 Z"/></g>
<g><path style="opacity:1" fill="#7fcc98" d="M 434.5,391.5 C 434.262,393.404 433.262,394.738 431.5,395.5C 431.5,394.167 431.5,392.833 431.5,391.5C 432.5,391.5 433.5,391.5 434.5,391.5 Z"/></g>
<g><path style="opacity:0.31" fill="#b9e4ca" d="M 206.5,392.5 C 224.563,396.894 242.897,398.561 261.5,397.5C 250.674,398.659 239.674,398.826 228.5,398C 220.744,397.31 213.411,395.477 206.5,392.5 Z"/></g>
<g><path style="opacity:1" fill="#90d3a6" d="M 373.5,388.5 C 373.802,392.38 372.469,395.38 369.5,397.5C 370.463,394.256 371.796,391.256 373.5,388.5 Z"/></g>
<g><path style="opacity:0.667" fill="#a6ddbb" d="M 280.5,394.5 C 280.082,395.222 279.416,395.722 278.5,396C 272.877,397.029 267.21,397.529 261.5,397.5C 267.653,396.198 273.986,395.198 280.5,394.5 Z"/></g>
<g><path style="opacity:0.027" fill="#cfecda" d="M 426.5,401.5 C 426.573,403.027 425.906,404.027 424.5,404.5C 424.427,402.973 425.094,401.973 426.5,401.5 Z"/></g>
<g><path style="opacity:1" fill="#66c388" d="M 69.5,403.5 C 71.8458,404.523 74.1791,405.523 76.5,406.5C 76.5,407.5 76.5,408.5 76.5,409.5C 76.1667,409.5 75.8333,409.5 75.5,409.5C 73.1667,407.833 71.1667,405.833 69.5,403.5 Z"/></g>
<g><path style="opacity:0.012" fill="#d8f0e1" d="M 75.5,409.5 C 75.8333,409.5 76.1667,409.5 76.5,409.5C 77.6005,410.605 78.2671,411.938 78.5,413.5C 76.7376,412.738 75.7376,411.404 75.5,409.5 Z"/></g>
<g><path style="opacity:1" fill="#7fcc98" d="M 417.5,411.5 C 414.812,416.188 411.145,419.855 406.5,422.5C 407.598,421.603 407.598,420.77 406.5,420C 409.521,416.123 413.188,413.289 417.5,411.5 Z"/></g>
<g><path style="opacity:0.663" fill="#b8e4c8" d="M 78.5,413.5 C 83.4397,416.77 87.7731,420.77 91.5,425.5C 86.5603,422.23 82.2269,418.23 78.5,413.5 Z"/></g>
<g><path style="opacity:1" fill="#85cf9f" d="M 362.5,412.5 C 362.426,415.659 361.093,417.992 358.5,419.5C 359.079,416.669 360.412,414.336 362.5,412.5 Z"/></g>
<g><path style="opacity:1" fill="#7dcb96" d="M 305.5,417.5 C 304.557,420.109 302.89,422.109 300.5,423.5C 299.743,419.893 301.409,417.893 305.5,417.5 Z"/></g>
<g><path style="opacity:0.345" fill="#b6e3c8" d="M 358.5,419.5 C 358.573,421.027 357.906,422.027 356.5,422.5C 356.427,420.973 357.094,419.973 358.5,419.5 Z"/></g>
<g><path style="opacity:0.443" fill="#a9debe" d="M 355.5,424.5 C 355.573,426.027 354.906,427.027 353.5,427.5C 353.427,425.973 354.094,424.973 355.5,424.5 Z"/></g>
<g><path style="opacity:0.776" fill="#a7ddbb" d="M 93.5,427.5 C 95.7488,428.08 97.4154,429.413 98.5,431.5C 96.2512,430.92 94.5846,429.587 93.5,427.5 Z"/></g>
<g><path style="opacity:0.373" fill="#b1e1c4" d="M 353.5,427.5 C 353.573,429.027 352.906,430.027 351.5,430.5C 351.427,428.973 352.094,427.973 353.5,427.5 Z"/></g>
<g><path style="opacity:1" fill="#7ecc97" d="M 395.5,432.5 C 394.738,434.262 393.404,435.262 391.5,435.5C 392.048,434.312 392.381,433.145 392.5,432C 393.577,431.53 394.577,431.697 395.5,432.5 Z"/></g>
<g><path style="opacity:0.439" fill="#aee0c2" d="M 351.5,430.5 C 351.573,432.027 350.906,433.027 349.5,433.5C 349.427,431.973 350.094,430.973 351.5,430.5 Z"/></g>
<g><path style="opacity:0.514" fill="#acdfbf" d="M 98.5,431.5 C 101.089,432.419 103.089,434.086 104.5,436.5C 101.911,435.581 99.9108,433.914 98.5,431.5 Z"/></g>
<g><path style="opacity:1" fill="#8dd1a3" d="M 285.5,435.5 C 284.738,437.262 283.404,438.262 281.5,438.5C 282.598,437.603 282.598,436.77 281.5,436C 282.793,435.51 284.127,435.343 285.5,435.5 Z"/></g>
<g><path style="opacity:0.514" fill="#a0dab7" d="M 349.5,433.5 C 349.573,435.027 348.906,436.027 347.5,436.5C 347.427,434.973 348.094,433.973 349.5,433.5 Z"/></g>
<g><path style="opacity:0.737" fill="#99d8b2" d="M 104.5,436.5 C 106.027,436.427 107.027,437.094 107.5,438.5C 105.973,438.573 104.973,437.906 104.5,436.5 Z"/></g>
<g><path style="opacity:1" fill="#70c88f" d="M 111.5,441.5 C 115.505,441.163 118.172,442.83 119.5,446.5C 116.296,445.617 113.629,443.95 111.5,441.5 Z"/></g>
<g><path style="opacity:1" fill="#6ec68c" d="M 278.5,440.5 C 271.815,445.512 264.482,449.512 256.5,452.5C 255.833,452.5 255.167,452.5 254.5,452.5C 254.369,451.624 254.702,450.957 255.5,450.5C 258.759,448.969 262.093,447.636 265.5,446.5C 268.167,444.667 270.833,442.833 273.5,441C 275.134,440.506 276.801,440.34 278.5,440.5 Z"/></g>
<g><path style="opacity:0.537" fill="#aadebd" d="M 344.5,440.5 C 343.92,442.749 342.587,444.415 340.5,445.5C 341.08,443.251 342.413,441.585 344.5,440.5 Z"/></g>
<g><path style="opacity:0.569" fill="#a0dbb6" d="M 340.5,445.5 C 338.913,448.268 337.08,450.935 335,453.5C 334.329,454.252 333.496,454.586 332.5,454.5C 334.453,450.88 337.119,447.88 340.5,445.5 Z"/></g>
<g><path style="opacity:1" fill="#86d0a1" d="M 129.5,451.5 C 133.165,451.502 136.165,452.835 138.5,455.5C 135.088,454.925 132.088,453.592 129.5,451.5 Z"/></g>
<g><path style="opacity:0.78" fill="#a0dbb7" d="M 138.5,455.5 C 144.166,456.39 149.5,458.057 154.5,460.5C 148.834,459.61 143.5,457.943 138.5,455.5 Z"/></g>
<g><path style="opacity:0.29" fill="#b5e3c7" d="M 254.5,452.5 C 255.167,452.5 255.833,452.5 256.5,452.5C 251.618,455.464 246.285,457.464 240.5,458.5C 245.013,456.323 249.68,454.323 254.5,452.5 Z"/></g>
<g><path style="opacity:0.761" fill="#88d1a4" d="M 332.5,454.5 C 329.5,459.5 325.5,463.5 320.5,466.5C 324.167,462.167 328.167,458.167 332.5,454.5 Z"/></g>
<g><path style="opacity:0.341" fill="#b0e1c3" d="M 240.5,458.5 C 238.401,459.612 236.067,460.279 233.5,460.5C 235.438,458.837 237.772,458.171 240.5,458.5 Z"/></g>
<g><path style="opacity:1" fill="#75c992" d="M 362.5,455.5 C 356.151,459.341 349.484,462.675 342.5,465.5C 343.476,464.185 344.476,462.852 345.5,461.5C 349.747,460.706 353.414,458.872 356.5,456C 358.473,455.505 360.473,455.338 362.5,455.5 Z"/></g>
<g><path style="opacity:0.894" fill="#90d4aa" d="M 158.5,461.5 C 162.489,461.116 166.155,461.783 169.5,463.5C 165.575,463.57 161.909,462.903 158.5,461.5 Z"/></g>
<g><path style="opacity:0.392" fill="#b2e1c5" d="M 224.5,462.5 C 220.733,463.795 216.733,464.461 212.5,464.5C 216.21,462.864 220.21,462.198 224.5,462.5 Z"/></g>
<g><path style="opacity:0.578" fill="#a6ddbc" d="M 169.5,463.5 C 183.152,464.284 196.819,464.618 210.5,464.5C 205.177,465.166 199.677,465.499 194,465.5C 185.612,465.673 177.445,465.006 169.5,463.5 Z"/></g>
<g><path style="opacity:0.365" fill="#b9e5ca" d="M 342.5,465.5 C 341.22,466.931 339.553,467.598 337.5,467.5C 338.78,466.069 340.447,465.402 342.5,465.5 Z"/></g>
<g><path style="opacity:0.341" fill="#aee0c2" d="M 337.5,467.5 C 336.22,468.931 334.553,469.598 332.5,469.5C 333.78,468.069 335.447,467.402 337.5,467.5 Z"/></g>
<g><path style="opacity:0.753" fill="#8fd4a9" d="M 320.5,466.5 C 319.089,468.914 317.089,470.581 314.5,471.5C 315.911,469.086 317.911,467.419 320.5,466.5 Z"/></g>
<g><path style="opacity:0.071" fill="#c8ead5" d="M 332.5,469.5 C 331.486,470.674 330.153,471.34 328.5,471.5C 329.287,469.896 330.62,469.229 332.5,469.5 Z"/></g>
<g><path style="opacity:1" fill="#85d0a0" d="M 314.5,471.5 C 314.75,472.922 315.583,473.922 317,474.5C 320.293,472.792 323.793,471.792 327.5,471.5C 320.94,474.299 314.106,476.632 307,478.5C 305.174,477.99 305.007,477.156 306.5,476C 309.329,474.644 311.996,473.144 314.5,471.5 Z"/></g>
</svg>
