<?xml version="1.0" encoding="UTF-8"?>
<!DOCTYPE svg PUBLIC "-//W3C//DTD SVG 1.1//EN" "http://www.w3.org/Graphics/SVG/1.1/DTD/svg11.dtd">
<svg xmlns="http://www.w3.org/2000/svg" version="1.1" width="500px" height="500px" style="shape-rendering:geometricPrecision; text-rendering:geometricPrecision; image-rendering:optimizeQuality; fill-rule:evenodd; clip-rule:evenodd" xmlns:xlink="http://www.w3.org/1999/xlink">
<g><path style="opacity:1" fill="#2aae61" d="M 283.5,22.5 C 292.222,25.2375 301.222,27.2375 310.5,28.5C 312.438,30.1628 314.772,30.8294 317.5,30.5C 324.124,33.9337 331.124,36.6004 338.5,38.5C 339.492,38.3284 340.158,38.6618 340.5,39.5C 343.088,41.6246 346.088,42.9579 349.5,43.5C 352.678,46.2583 356.345,48.2583 360.5,49.5C 362.153,49.6596 363.486,50.3263 364.5,51.5C 366.817,55.7018 370.484,58.0351 375.5,58.5C 375.973,59.9063 376.973,60.573 378.5,60.5C 378.973,61.9063 379.973,62.573 381.5,62.5C 383.23,63.0256 384.564,64.0256 385.5,65.5C 385.973,66.9063 386.973,67.573 388.5,67.5C 389.5,67.8333 390.167,68.5 390.5,69.5C 390.973,70.9063 391.973,71.573 393.5,71.5C 394.539,73.5311 396.205,74.8645 398.5,75.5C 399.833,76.1667 400.833,77.1667 401.5,78.5C 402.262,80.2624 403.596,81.2624 405.5,81.5C 409.167,84.5 412.5,87.8333 415.5,91.5C 416.757,94.4274 418.757,96.7607 421.5,98.5C 422.5,98.8333 423.167,99.5 423.5,100.5C 424.08,102.749 425.413,104.415 427.5,105.5C 428.08,107.749 429.413,109.415 431.5,110.5C 437.149,116.459 441.815,123.125 445.5,130.5C 445.427,132.027 446.094,133.027 447.5,133.5C 463.422,158.925 473.422,186.591 477.5,216.5C 476.92,220.649 477.586,224.316 479.5,227.5C 485.506,288.824 470.34,344.157 434,393.5C 431.715,396.432 429.215,399.098 426.5,401.5C 423.043,401.96 421.377,403.96 421.5,407.5C 420.5,409.167 419.167,410.5 417.5,411.5C 413.188,413.289 409.521,416.123 406.5,420C 407.598,420.77 407.598,421.603 406.5,422.5C 393.554,435.777 378.888,446.777 362.5,455.5C 360.473,455.338 358.473,455.505 356.5,456C 353.414,458.872 349.747,460.706 345.5,461.5C 344.476,462.852 343.476,464.185 342.5,465.5C 340.447,465.402 338.78,466.069 337.5,467.5C 335.143,467.337 332.81,467.503 330.5,468C 329.027,468.71 328.36,469.876 328.5,471.5C 328.167,471.5 327.833,471.5 327.5,471.5C 323.793,471.792 320.293,472.792 317,474.5C 315.583,473.922 314.75,472.922 314.5,471.5C 317.089,470.581 319.089,468.914 320.5,466.5C 325.5,463.5 329.5,459.5 332.5,454.5C 333.5,452.833 334.833,451.5 336.5,450.5C 338.587,449.415 339.92,447.749 340.5,445.5C 342.587,444.415 343.92,442.749 344.5,440.5C 345.786,437.883 347.453,435.55 349.5,433.5C 350.906,433.027 351.573,432.027 351.5,430.5C 357.772,419.621 363.772,408.621 369.5,397.5C 374.012,392.12 376.679,385.787 377.5,378.5C 380.53,374.077 382.197,369.077 382.5,363.5C 384.163,361.562 384.829,359.228 384.5,356.5C 384.898,352.239 385.898,348.239 387.5,344.5C 389.118,341.829 389.785,338.829 389.5,335.5C 391.082,332.124 391.749,328.458 391.5,324.5C 393.471,318.123 394.638,311.456 395,304.5C 397.359,280.032 396.359,255.699 392,231.5C 390.43,223.866 388.263,216.533 385.5,209.5C 383.796,206.061 382.462,202.395 381.5,198.5C 382.021,195.364 381.021,193.03 378.5,191.5C 376.562,187.957 374.895,184.29 373.5,180.5C 373.759,178.011 372.759,176.344 370.5,175.5C 365.531,168.857 360.531,162.19 355.5,155.5C 354.92,153.251 353.587,151.585 351.5,150.5C 350.5,150.167 349.833,149.5 349.5,148.5C 346.769,144.766 343.436,141.766 339.5,139.5C 336.467,137.984 333.8,135.984 331.5,133.5C 327.527,127.345 321.86,124.011 314.5,123.5C 309.978,121.736 305.645,119.736 301.5,117.5C 297.37,114.676 292.703,113.009 287.5,112.5C 265.375,107.15 243.042,106.15 220.5,109.5C 216.694,109.412 213.028,110.079 209.5,111.5C 208.707,111.069 207.873,110.735 207,110.5C 204.112,112.208 201.279,113.874 198.5,115.5C 195.351,115.415 192.684,116.415 190.5,118.5C 187.246,118.794 184.579,120.127 182.5,122.5C 178.517,121.572 175.85,122.905 174.5,126.5C 172.973,126.427 171.973,127.094 171.5,128.5C 164.524,133.802 157.524,139.136 150.5,144.5C 149.577,143.697 148.577,143.53 147.5,144C 145,146.5 142.5,149 140,151.5C 139.51,152.793 139.343,154.127 139.5,155.5C 128.052,169.6 118.718,184.933 111.5,201.5C 108.427,204.715 107.094,208.715 107.5,213.5C 107.5,213.833 107.5,214.167 107.5,214.5C 106.414,214.62 105.747,215.287 105.5,216.5C 104.698,219.449 104.364,222.449 104.5,225.5C 98.5523,262.487 104.886,297.154 123.5,329.5C 123.427,331.027 124.094,332.027 125.5,332.5C 128.323,335.475 130.656,338.808 132.5,342.5C 133.08,344.749 134.413,346.415 136.5,347.5C 137.5,347.833 138.167,348.5 138.5,349.5C 141.5,354.5 145.5,358.5 150.5,361.5C 151.5,361.833 152.167,362.5 152.5,363.5C 153.262,365.262 154.596,366.262 156.5,366.5C 157.035,368.446 158.368,369.446 160.5,369.5C 161.035,371.446 162.368,372.446 164.5,372.5C 165.733,374.796 167.733,376.13 170.5,376.5C 170.973,377.906 171.973,378.573 173.5,378.5C 175.819,378.992 177.819,379.992 179.5,381.5C 182.247,384.207 185.58,385.873 189.5,386.5C 194.667,389.668 200.334,391.668 206.5,392.5C 213.411,395.477 220.744,397.31 228.5,398C 239.674,398.826 250.674,398.659 261.5,397.5C 267.21,397.529 272.877,397.029 278.5,396C 279.416,395.722 280.082,395.222 280.5,394.5C 282.905,393.232 285.572,392.565 288.5,392.5C 290.199,392.66 291.866,392.494 293.5,392C 296.859,390.953 299.859,389.453 302.5,387.5C 303.93,386.463 305.597,385.796 307.5,385.5C 311.748,385.376 315.082,383.71 317.5,380.5C 321.044,379.888 324.377,378.721 327.5,377C 328.305,375.887 328.972,374.721 329.5,373.5C 329.973,372.094 330.973,371.427 332.5,371.5C 333.833,371.5 334.5,372.167 334.5,373.5C 327.999,390.319 318.333,404.986 305.5,417.5C 301.409,417.893 299.743,419.893 300.5,423.5C 296.058,428.284 291.058,432.284 285.5,435.5C 284.127,435.343 282.793,435.51 281.5,436C 282.598,436.77 282.598,437.603 281.5,438.5C 281.027,439.906 280.027,440.573 278.5,440.5C 276.801,440.34 275.134,440.506 273.5,441C 270.833,442.833 268.167,444.667 265.5,446.5C 262.093,447.636 258.759,448.969 255.5,450.5C 254.702,450.957 254.369,451.624 254.5,452.5C 249.68,454.323 245.013,456.323 240.5,458.5C 237.772,458.171 235.438,458.837 233.5,460.5C 230.727,461.657 227.727,462.324 224.5,462.5C 220.21,462.198 216.21,462.864 212.5,464.5C 211.833,464.5 211.167,464.5 210.5,464.5C 196.819,464.618 183.152,464.284 169.5,463.5C 164.894,461.124 159.894,460.124 154.5,460.5C 149.5,458.057 144.166,456.39 138.5,455.5C 125.898,451.205 114.565,444.871 104.5,436.5C 103.089,434.086 101.089,432.419 98.5,431.5C 97.4154,429.413 95.7488,428.08 93.5,427.5C 92.5,427.167 91.8333,426.5 91.5,425.5C 87.7731,420.77 83.4397,416.77 78.5,413.5C 78.2624,411.596 77.2624,410.262 75.5,409.5C 72.7573,407.761 70.7573,405.427 69.5,402.5C 69.6107,401.883 69.944,401.383 70.5,401C 69.1667,400 67.8333,399 66.5,398C 67.7836,396.703 67.6169,395.536 66,394.5C 65.7216,395.416 65.2216,396.082 64.5,396.5C 63.3872,389.939 60.8872,383.939 57,378.5C 56.3828,379.449 56.5494,380.282 57.5,381C 56.4734,381.513 55.4734,382.013 54.5,382.5C 48.8089,375.121 44.1422,367.121 40.5,358.5C 40.7593,356.011 39.7593,354.344 37.5,353.5C 37.1667,352.833 36.8333,352.167 36.5,351.5C 36.5979,349.447 35.9313,347.78 34.5,346.5C 32.9348,344.491 31.9348,342.157 31.5,339.5C 31.5979,337.447 30.9313,335.78 29.5,334.5C 28.596,333.791 28.2627,332.791 28.5,331.5C 28.405,329.214 27.7384,327.214 26.5,325.5C 25.4055,319.561 23.7389,313.894 21.5,308.5C 20.3428,305.727 19.6761,302.727 19.5,299.5C 18.2308,288.351 16.8975,277.351 15.5,266.5C 14.3083,257.491 14.3083,248.491 15.5,239.5C 16.9057,230.35 17.9057,221.017 18.5,211.5C 18.5399,208.012 19.2066,204.679 20.5,201.5C 22.5682,198.237 23.5682,194.57 23.5,190.5C 25.68,187.619 26.68,184.286 26.5,180.5C 28.6545,178.383 29.6545,175.716 29.5,172.5C 32.8306,168.136 34.8306,163.136 35.5,157.5C 40.631,152.243 43.9643,145.91 45.5,138.5C 48.1643,136.699 49.9976,134.699 51,132.5C 51.49,131.207 51.6567,129.873 51.5,128.5C 51.3284,127.508 51.6618,126.842 52.5,126.5C 53.9063,126.027 54.573,125.027 54.5,123.5C 57.8181,117.545 61.6514,111.878 66,106.5C 67.3712,104.959 68.8712,103.625 70.5,102.5C 72.914,101.089 74.5806,99.0892 75.5,96.5C 76.8333,94.5 78.5,92.8333 80.5,91.5C 83.1667,89.5 85.5,87.1667 87.5,84.5C 88.8333,82.5 90.5,80.8333 92.5,79.5C 95.0892,78.5806 97.0892,76.914 98.5,74.5C 107.274,66.2786 116.94,59.2786 127.5,53.5C 129.027,53.573 130.027,52.9063 130.5,51.5C 134.036,50.1544 137.702,49.1544 141.5,48.5C 141.5,47.5 141.5,46.5 141.5,45.5C 142.514,44.3263 143.847,43.6596 145.5,43.5C 150.506,42.8285 154.839,40.8285 158.5,37.5C 159.93,36.4625 161.597,35.7959 163.5,35.5C 170.767,33.7444 177.767,31.4111 184.5,28.5C 187.228,28.8294 189.562,28.1628 191.5,26.5C 198.53,26.4039 205.196,25.0705 211.5,22.5C 217.069,22.624 222.402,21.9573 227.5,20.5C 240.425,19.3537 253.425,19.187 266.5,20C 272.384,20.3152 278.051,21.1485 283.5,22.5 Z"/></g>
<g><path style="opacity:0.663" fill="#a6ddbd" d="M 227.5,20.5 C 222.402,21.9573 217.069,22.624 211.5,22.5C 216.598,21.0427 221.931,20.376 227.5,20.5 Z"/></g>
<g><path style="opacity:0.325" fill="#b4e2c6" d="M 283.5,22.5 C 292.853,23.4246 301.853,25.4246 310.5,28.5C 301.222,27.2375 292.222,25.2375 283.5,22.5 Z"/></g>
<g><path style="opacity:0.918" fill="#89d1a4" d="M 211.5,22.5 C 205.196,25.0705 198.53,26.4039 191.5,26.5C 197.873,24.2919 204.54,22.9586 211.5,22.5 Z"/></g>
<g><path style="opacity:0.8" fill="#9dd9b5" d="M 191.5,26.5 C 189.562,28.1628 187.228,28.8294 184.5,28.5C 186.515,27.0762 188.848,26.4095 191.5,26.5 Z"/></g>
<g><path style="opacity:0.545" fill="#a9debe" d="M 310.5,28.5 C 313.067,28.7215 315.401,29.3882 317.5,30.5C 314.772,30.8294 312.438,30.1628 310.5,28.5 Z"/></g>
<g><path style="opacity:0.627" fill="#a4dcba" d="M 184.5,28.5 C 177.767,31.4111 170.767,33.7444 163.5,35.5C 170.085,32.1937 177.085,29.8604 184.5,28.5 Z"/></g>
<g><path style="opacity:0.38" fill="#b9e5cb" d="M 317.5,30.5 C 324.888,32.3693 331.888,35.036 338.5,38.5C 331.124,36.6004 324.124,33.9337 317.5,30.5 Z"/></g>
<g><path style="opacity:0.976" fill="#80ce9d" d="M 158.5,37.5 C 154.839,40.8285 150.506,42.8285 145.5,43.5C 149.405,40.7164 153.738,38.7164 158.5,37.5 Z"/></g>
<g><path style="opacity:0.4" fill="#b2e2c5" d="M 340.5,39.5 C 343.912,40.0421 346.912,41.3754 349.5,43.5C 346.088,42.9579 343.088,41.6246 340.5,39.5 Z"/></g>
<g><path style="opacity:0.369" fill="#b4e3c6" d="M 349.5,43.5 C 353.655,44.7417 357.322,46.7417 360.5,49.5C 356.345,48.2583 352.678,46.2583 349.5,43.5 Z"/></g>
<g><path style="opacity:1" fill="#76ca93" d="M 141.5,45.5 C 141.5,46.5 141.5,47.5 141.5,48.5C 137.702,49.1544 134.036,50.1544 130.5,51.5C 133.678,48.7417 137.345,46.7417 141.5,45.5 Z"/></g>
<g><path style="opacity:0.58" fill="#afe0c3" d="M 130.5,51.5 C 130.027,52.9063 129.027,53.573 127.5,53.5C 127.973,52.0937 128.973,51.427 130.5,51.5 Z"/></g>
<g><path style="opacity:0.929" fill="#93d5aa" d="M 364.5,51.5 C 368.439,53.4462 372.106,55.7795 375.5,58.5C 370.484,58.0351 366.817,55.7018 364.5,51.5 Z"/></g>
<g><path style="opacity:0.196" fill="#c5e9d3" d="M 375.5,58.5 C 377.027,58.427 378.027,59.0937 378.5,60.5C 376.973,60.573 375.973,59.9063 375.5,58.5 Z"/></g>
<g><path style="opacity:0.145" fill="#cbecd8" d="M 378.5,60.5 C 380.027,60.427 381.027,61.0937 381.5,62.5C 379.973,62.573 378.973,61.9063 378.5,60.5 Z"/></g>
<g><path style="opacity:0.008" fill="#d1eedc" d="M 385.5,65.5 C 387.027,65.427 388.027,66.0937 388.5,67.5C 386.973,67.573 385.973,66.9063 385.5,65.5 Z"/></g>
<g><path style="opacity:0.031" fill="#c8ead5" d="M 390.5,69.5 C 392.027,69.427 393.027,70.0937 393.5,71.5C 391.973,71.573 390.973,70.9063 390.5,69.5 Z"/></g>
<g><path style="opacity:0.49" fill="#b1e1c3" d="M 393.5,71.5 C 395.754,72.1237 397.421,73.457 398.5,75.5C 396.205,74.8645 394.539,73.5311 393.5,71.5 Z"/></g>
<g><path style="opacity:0.769" fill="#96d7af" d="M 98.5,74.5 C 97.0892,76.914 95.0892,78.5806 92.5,79.5C 93.9108,77.086 95.9108,75.4194 98.5,74.5 Z"/></g>
<g><path style="opacity:0.016" fill="#d1eedc" d="M 401.5,78.5 C 403.404,78.7376 404.738,79.7376 405.5,81.5C 403.596,81.2624 402.262,80.2624 401.5,78.5 Z"/></g>
<g><path style="opacity:0.604" fill="#a9debe" d="M 87.5,84.5 C 85.5,87.1667 83.1667,89.5 80.5,91.5C 81.8333,88.1667 84.1667,85.8333 87.5,84.5 Z"/></g>
<g><path style="opacity:0.643" fill="#b2e2c3" d="M 415.5,91.5 C 418.243,93.2393 420.243,95.5726 421.5,98.5C 418.757,96.7607 416.757,94.4274 415.5,91.5 Z"/></g>
<g><path style="opacity:0.639" fill="#a5dcba" d="M 75.5,96.5 C 74.5806,99.0892 72.914,101.089 70.5,102.5C 71.4194,99.9108 73.086,97.9108 75.5,96.5 Z"/></g>
<g><path style="opacity:0.808" fill="#a2dbb7" d="M 423.5,100.5 C 425.587,101.585 426.92,103.251 427.5,105.5C 425.413,104.415 424.08,102.749 423.5,100.5 Z"/></g>
<g><path style="opacity:0.62" fill="#9edab4" d="M 427.5,105.5 C 429.587,106.585 430.92,108.251 431.5,110.5C 429.413,109.415 428.08,107.749 427.5,105.5 Z"/></g>
<g><path style="opacity:1" fill="#8cd3a5" d="M 220.5,109.5 C 213.322,111.664 205.989,113.664 198.5,115.5C 201.279,113.874 204.112,112.208 207,110.5C 207.873,110.735 208.707,111.069 209.5,111.5C 213.028,110.079 216.694,109.412 220.5,109.5 Z"/></g>
<g><path style="opacity:0.659" fill="#aadfbf" d="M 287.5,112.5 C 292.703,113.009 297.37,114.676 301.5,117.5C 296.607,116.204 291.94,114.538 287.5,112.5 Z"/></g>
<g><path style="opacity:0.635" fill="#a2dcb9" d="M 198.5,115.5 C 196.11,117.02 193.443,118.02 190.5,118.5C 192.684,116.415 195.351,115.415 198.5,115.5 Z"/></g>
<g><path style="opacity:0.541" fill="#acdfc0" d="M 190.5,118.5 C 188.151,120.341 185.485,121.674 182.5,122.5C 184.579,120.127 187.246,118.794 190.5,118.5 Z"/></g>
<g><path style="opacity:1" fill="#80cd9b" d="M 182.5,122.5 C 180.151,124.341 177.485,125.674 174.5,126.5C 175.85,122.905 178.517,121.572 182.5,122.5 Z"/></g>
<g><path style="opacity:0.314" fill="#c0e7cf" d="M 54.5,123.5 C 54.573,125.027 53.9063,126.027 52.5,126.5C 52.427,124.973 53.0937,123.973 54.5,123.5 Z"/></g>
<g><path style="opacity:0.999" fill="#242424" d="M 285.5,126.5 C 287.075,128.114 287.741,130.114 287.5,132.5C 259.833,160.833 231.833,188.833 203.5,216.5C 201.856,216.714 200.356,216.38 199,215.5C 198.333,188.5 198.333,161.5 199,134.5C 199.904,131.767 201.404,129.433 203.5,127.5C 230.662,126.502 257.995,126.169 285.5,126.5 Z"/></g>
<g><path style="opacity:0.047" fill="#c3e9d2" d="M 174.5,126.5 C 174.027,127.906 173.027,128.573 171.5,128.5C 171.973,127.094 172.973,126.427 174.5,126.5 Z"/></g>
<g><path style="opacity:0.961" fill="#656565" d="M 285.5,126.5 C 289.071,126.408 290.238,128.074 289,131.5C 288.617,132.056 288.117,132.389 287.5,132.5C 287.741,130.114 287.075,128.114 285.5,126.5 Z"/></g>
<g><path style="opacity:1" fill="#65c387" d="M 314.5,123.5 C 321.86,124.011 327.527,127.345 331.5,133.5C 325.661,130.415 319.994,127.082 314.5,123.5 Z"/></g>
<g><path style="opacity:0.098" fill="#d1d1d1" d="M 301.5,131.5 C 303.38,131.229 304.713,131.896 305.5,133.5C 303.847,133.34 302.514,132.674 301.5,131.5 Z"/></g>
<g><path style="opacity:1" fill="#272727" d="M 301.5,131.5 C 302.514,132.674 303.847,133.34 305.5,133.5C 324.465,151.965 343.299,170.632 362,189.5C 362.483,190.448 362.649,191.448 362.5,192.5C 361.5,192.833 360.833,193.5 360.5,194.5C 319.736,195.829 279.069,195.829 238.5,194.5C 237.527,192.932 237.36,191.265 238,189.5C 257.035,170.632 275.868,151.632 294.5,132.5C 296.655,130.466 298.988,130.133 301.5,131.5 Z"/></g>
<g><path style="opacity:0.376" fill="#afe0c2" d="M 445.5,130.5 C 446.906,130.973 447.573,131.973 447.5,133.5C 446.094,133.027 445.427,132.027 445.5,130.5 Z"/></g>
<g><path style="opacity:1" fill="#77ca93" d="M 51.5,128.5 C 51.6567,129.873 51.49,131.207 51,132.5C 49.9976,134.699 48.1643,136.699 45.5,138.5C 46.4977,134.495 48.4977,131.161 51.5,128.5 Z"/></g>
<g><path style="opacity:0.999" fill="#222222" d="M 192.5,135.5 C 192.5,176.833 192.5,218.167 192.5,259.5C 191.167,260.833 189.833,260.833 188.5,259.5C 170.783,240.782 152.449,222.782 133.5,205.5C 132.928,203.745 132.094,202.078 131,200.5C 130.505,198.527 130.338,196.527 130.5,194.5C 130.328,193.508 130.662,192.842 131.5,192.5C 144.167,180.5 156.5,168.167 168.5,155.5C 175.833,148.833 182.833,141.833 189.5,134.5C 190.947,133.115 191.947,133.448 192.5,135.5 Z"/></g>
<g><path style="opacity:0.133" fill="#d9d9d9" d="M 203.5,127.5 C 201.404,129.433 199.904,131.767 199,134.5C 198.333,161.5 198.333,188.5 199,215.5C 200.356,216.38 201.856,216.714 203.5,216.5C 201.777,217.807 199.943,217.807 198,216.5C 197.333,188.5 197.333,160.5 198,132.5C 199.076,129.921 200.909,128.254 203.5,127.5 Z"/></g>
<g><path style="opacity:0.891" fill="#6b6b6b" d="M 192.5,135.5 C 193.222,135.918 193.722,136.584 194,137.5C 194.667,177.5 194.667,217.5 194,257.5C 193.722,258.416 193.222,259.082 192.5,259.5C 192.5,218.167 192.5,176.833 192.5,135.5 Z"/></g>
<g><path style="opacity:0.722" fill="#898989" d="M 189.5,134.5 C 182.833,141.833 175.833,148.833 168.5,155.5C 168.5,155.167 168.5,154.833 168.5,154.5C 174.889,147.109 181.889,140.443 189.5,134.5 Z"/></g>
<g><path style="opacity:1" fill="#72c88f" d="M 150.5,144.5 C 147.167,148.5 143.5,152.167 139.5,155.5C 139.343,154.127 139.51,152.793 140,151.5C 142.5,149 145,146.5 147.5,144C 148.577,143.53 149.577,143.697 150.5,144.5 Z"/></g>
<g><path style="opacity:0.506" fill="#aee0c0" d="M 339.5,139.5 C 343.436,141.766 346.769,144.766 349.5,148.5C 345.564,146.234 342.231,143.234 339.5,139.5 Z"/></g>
<g><path style="opacity:1" fill="#76c992" d="M 45.5,138.5 C 43.9643,145.91 40.631,152.243 35.5,157.5C 38.0726,150.685 41.4059,144.351 45.5,138.5 Z"/></g>
<g><path style="opacity:0.722" fill="#8a8a8a" d="M 294.5,132.5 C 275.868,151.632 257.035,170.632 238,189.5C 237.36,191.265 237.527,192.932 238.5,194.5C 235.098,193.442 234.598,191.442 237,188.5C 255.752,169.246 274.918,150.58 294.5,132.5 Z"/></g>
<g><path style="opacity:0.008" fill="#ceecd9" d="M 351.5,150.5 C 353.587,151.585 354.92,153.251 355.5,155.5C 353.413,154.415 352.08,152.749 351.5,150.5 Z"/></g>
<g><path style="opacity:1" fill="#8fd3a5" d="M 35.5,157.5 C 34.8306,163.136 32.8306,168.136 29.5,172.5C 30.7042,167.105 32.7042,162.105 35.5,157.5 Z"/></g>
<g><path style="opacity:0.498" fill="#b6b6b6" d="M 168.5,154.5 C 168.5,154.833 168.5,155.167 168.5,155.5C 156.5,168.167 144.167,180.5 131.5,192.5C 143.114,179.219 155.447,166.552 168.5,154.5 Z"/></g>
<g><path style="opacity:1" fill="#8cd2a3" d="M 370.5,175.5 C 372.759,176.344 373.759,178.011 373.5,180.5C 372.11,179.101 371.11,177.434 370.5,175.5 Z"/></g>
<g><path style="opacity:0.922" fill="#9bd8af" d="M 29.5,172.5 C 29.6545,175.716 28.6545,178.383 26.5,180.5C 26.7329,177.458 27.7329,174.792 29.5,172.5 Z"/></g>
<g><path style="opacity:0.882" fill="#b5e2c5" d="M 26.5,180.5 C 26.68,184.286 25.68,187.619 23.5,190.5C 23.7234,186.838 24.7234,183.505 26.5,180.5 Z"/></g>
<g><path style="opacity:1" fill="#9cd8ae" d="M 378.5,191.5 C 381.021,193.03 382.021,195.364 381.5,198.5C 380.264,196.351 379.264,194.018 378.5,191.5 Z"/></g>
<g><path style="opacity:0.008" fill="#c9c9c9" d="M 362.5,192.5 C 362.5,193.833 361.833,194.5 360.5,194.5C 360.833,193.5 361.5,192.833 362.5,192.5 Z"/></g>
<g><path style="opacity:0.659" fill="#c4e8d1" d="M 23.5,190.5 C 23.5682,194.57 22.5682,198.237 20.5,201.5C 20.9257,197.573 21.9257,193.907 23.5,190.5 Z"/></g>
<g><path style="opacity:0.999" fill="#292929" d="M 369.5,289.5 C 366.892,289.6 364.558,288.933 362.5,287.5C 334.833,260.5 307.5,233.167 280.5,205.5C 280.461,204.417 280.127,203.417 279.5,202.5C 280.193,201.482 280.859,200.482 281.5,199.5C 308.33,198.336 335.33,198.17 362.5,199C 365.102,199.883 367.269,201.383 369,203.5C 370.151,218.077 370.651,232.744 370.5,247.5C 370.5,261.671 370.167,275.671 369.5,289.5 Z"/></g>
<g><path style="opacity:0.094" fill="#dadada" d="M 130.5,194.5 C 130.338,196.527 130.505,198.527 131,200.5C 132.094,202.078 132.928,203.745 133.5,205.5C 129.655,202.551 128.655,198.884 130.5,194.5 Z"/></g>
<g><path style="opacity:0.09" fill="#dddddd" d="M 281.5,199.5 C 280.859,200.482 280.193,201.482 279.5,202.5C 280.127,203.417 280.461,204.417 280.5,205.5C 278.623,204.341 278.123,202.674 279,200.5C 279.671,199.748 280.504,199.414 281.5,199.5 Z"/></g>
<g><path style="opacity:0.678" fill="#a8a8a8" d="M 133.5,205.5 C 152.449,222.782 170.783,240.782 188.5,259.5C 169.551,242.218 151.217,224.218 133.5,205.5 Z"/></g>
<g><path style="opacity:0.627" fill="#afafaf" d="M 130.5,208.5 C 128.708,208.366 127.042,208.699 125.5,209.5C 126.792,206.33 128.458,205.996 130.5,208.5 Z"/></g>
<g><path style="opacity:0.988" fill="#79ca94" d="M 111.5,201.5 C 110.46,205.685 109.127,209.685 107.5,213.5C 107.094,208.715 108.427,204.715 111.5,201.5 Z"/></g>
<g><path style="opacity:0.999" fill="#252525" d="M 130.5,208.5 C 158.784,235.116 186.45,262.45 213.5,290.5C 214.714,293.204 214.714,295.871 213.5,298.5C 185.662,298.831 157.995,298.498 130.5,297.5C 129.5,295.833 128.167,294.5 126.5,293.5C 126.611,265.493 126.278,237.493 125.5,209.5C 127.042,208.699 128.708,208.366 130.5,208.5 Z"/></g>
<g><path style="opacity:0.004" fill="#d2eedd" d="M 385.5,209.5 C 388.263,216.533 390.43,223.866 392,231.5C 396.359,255.699 397.359,280.032 395,304.5C 394.638,311.456 393.471,318.123 391.5,324.5C 397.143,285.723 395.143,247.39 385.5,209.5 Z"/></g>
<g><path style="opacity:0.996" fill="#7fcc99" d="M 107.5,214.5 C 106.945,218.397 105.945,222.063 104.5,225.5C 104.364,222.449 104.698,219.449 105.5,216.5C 105.747,215.287 106.414,214.62 107.5,214.5 Z"/></g>
<g><path style="opacity:0.773" fill="#bde6cc" d="M 18.5,211.5 C 17.9057,221.017 16.9057,230.35 15.5,239.5C 15.2038,229.888 16.2038,220.555 18.5,211.5 Z"/></g>
<g><path style="opacity:0.996" fill="#72c790" d="M 477.5,216.5 C 478.687,219.946 479.354,223.613 479.5,227.5C 477.586,224.316 476.92,220.649 477.5,216.5 Z"/></g>
<g><path style="opacity:0.79" fill="#919191" d="M 125.5,209.5 C 126.278,237.493 126.611,265.493 126.5,293.5C 125.778,293.082 125.278,292.416 125,291.5C 124.17,263.997 124.336,236.664 125.5,209.5 Z"/></g>
<g><path style="opacity:0.999" fill="#252525" d="M 307.5,238.5 C 326.465,256.965 345.299,275.632 364,294.5C 366.219,299.069 365.886,303.402 363,307.5C 344.5,326 326,344.5 307.5,363C 305.613,363.78 303.946,363.613 302.5,362.5C 302.333,321.499 302.5,280.499 303,239.5C 304.356,238.62 305.856,238.286 307.5,238.5 Z"/></g>
<g><path style="opacity:0.359" fill="#c5c5c5" d="M 307.5,238.5 C 305.856,238.286 304.356,238.62 303,239.5C 302.5,280.499 302.333,321.499 302.5,362.5C 301.778,362.082 301.278,361.416 301,360.5C 300.333,320.5 300.333,280.5 301,240.5C 302.678,236.864 304.844,236.197 307.5,238.5 Z"/></g>
<g><path style="opacity:0.039" fill="#ddf2e5" d="M 15.5,266.5 C 16.8975,277.351 18.2308,288.351 19.5,299.5C 16.6241,288.822 15.2908,277.822 15.5,266.5 Z"/></g>
<g><path style="opacity:0.999" fill="#232323" d="M 296.5,281.5 C 296.8,310.192 296.467,338.858 295.5,367.5C 294.657,369.173 293.324,370.34 291.5,371C 263.33,371.83 235.33,371.664 207.5,370.5C 207.196,369.85 206.863,369.183 206.5,368.5C 207.63,367.378 208.297,366.044 208.5,364.5C 236.916,337.586 264.916,310.086 292.5,282C 293.793,281.51 295.127,281.343 296.5,281.5 Z"/></g>
<g><path style="opacity:0.841" fill="#464646" d="M 296.5,281.5 C 297.664,309.33 297.83,337.33 297,365.5C 296.722,366.416 296.222,367.082 295.5,367.5C 296.467,338.858 296.8,310.192 296.5,281.5 Z"/></g>
<g><path style="opacity:0.576" fill="#979797" d="M 362.5,287.5 C 364.558,288.933 366.892,289.6 369.5,289.5C 366.598,291.115 364.265,290.449 362.5,287.5 Z"/></g>
<g><path style="opacity:0.035" fill="#d1d1d1" d="M 126.5,293.5 C 128.167,294.5 129.5,295.833 130.5,297.5C 128.167,297.167 126.833,295.833 126.5,293.5 Z"/></g>
<g><path style="opacity:0.955" fill="#717171" d="M 213.5,290.5 C 216.005,292.186 216.838,294.519 216,297.5C 215.329,298.252 214.496,298.586 213.5,298.5C 214.714,295.871 214.714,293.204 213.5,290.5 Z"/></g>
<g><path style="opacity:0.999" fill="#272727" d="M 179.5,353.5 C 165.115,338.114 150.115,323.448 134.5,309.5C 134.461,308.417 134.127,307.417 133.5,306.5C 134.193,305.482 134.859,304.482 135.5,303.5C 175.998,302.335 216.665,302.169 257.5,303C 259.325,304.466 259.825,306.299 259,308.5C 240.167,327.333 221.333,346.167 202.5,365C 199.298,366.483 195.964,366.817 192.5,366C 187.664,362.33 183.331,358.164 179.5,353.5 Z"/></g>
<g><path style="opacity:0.122" fill="#c9c9c9" d="M 135.5,303.5 C 134.859,304.482 134.193,305.482 133.5,306.5C 134.127,307.417 134.461,308.417 134.5,309.5C 132.623,308.341 132.123,306.674 133,304.5C 133.671,303.748 134.504,303.414 135.5,303.5 Z"/></g>
<g><path style="opacity:0.678" fill="#b8b8b8" d="M 134.5,309.5 C 150.115,323.448 165.115,338.114 179.5,353.5C 163.885,339.552 148.885,324.886 134.5,309.5 Z"/></g>
<g><path style="opacity:0.012" fill="#dff3e6" d="M 21.5,308.5 C 23.7389,313.894 25.4055,319.561 26.5,325.5C 23.858,320.229 22.1914,314.563 21.5,308.5 Z"/></g>
<g><path style="opacity:0.867" fill="#686868" d="M 296.5,281.5 C 295.127,281.343 293.793,281.51 292.5,282C 264.916,310.086 236.916,337.586 208.5,364.5C 236.508,335.492 265.175,307.159 294.5,279.5C 295.522,279.855 296.189,280.522 296.5,281.5 Z"/></g>
<g><path style="opacity:0.008" fill="#e6f5ec" d="M 26.5,325.5 C 27.7384,327.214 28.405,329.214 28.5,331.5C 26.9261,329.898 26.2594,327.898 26.5,325.5 Z"/></g>
<g><path style="opacity:0.404" fill="#b1e1c3" d="M 123.5,329.5 C 124.906,329.973 125.573,330.973 125.5,332.5C 124.094,332.027 123.427,331.027 123.5,329.5 Z"/></g>
<g><path style="opacity:0.024" fill="#e7f5ed" d="M 391.5,324.5 C 391.749,328.458 391.082,332.124 389.5,335.5C 389.646,331.613 390.313,327.946 391.5,324.5 Z"/></g>
<g><path style="opacity:0.122" fill="#def3e6" d="M 29.5,334.5 C 30.9313,335.78 31.5979,337.447 31.5,339.5C 30.0687,338.22 29.4021,336.553 29.5,334.5 Z"/></g>
<g><path style="opacity:0.031" fill="#e4f5eb" d="M 389.5,335.5 C 389.785,338.829 389.118,341.829 387.5,344.5C 387.676,341.273 388.343,338.273 389.5,335.5 Z"/></g>
<g><path style="opacity:0.518" fill="#abdfbf" d="M 132.5,342.5 C 134.587,343.585 135.92,345.251 136.5,347.5C 134.413,346.415 133.08,344.749 132.5,342.5 Z"/></g>
<g><path style="opacity:0.051" fill="#dff3e7" d="M 34.5,346.5 C 35.9313,347.78 36.5979,349.447 36.5,351.5C 35.0687,350.22 34.4021,348.553 34.5,346.5 Z"/></g>
<g><path style="opacity:0.796" fill="#ace0bf" d="M 138.5,349.5 C 142.833,353.167 146.833,357.167 150.5,361.5C 145.5,358.5 141.5,354.5 138.5,349.5 Z"/></g>
<g><path style="opacity:1" fill="#97d6ab" d="M 37.5,353.5 C 39.7593,354.344 40.7593,356.011 40.5,358.5C 38.7497,357.341 37.7497,355.674 37.5,353.5 Z"/></g>
<g><path style="opacity:0.737" fill="#bce5cb" d="M 384.5,356.5 C 384.829,359.228 384.163,361.562 382.5,363.5C 382.41,360.848 383.076,358.515 384.5,356.5 Z"/></g>
<g><path style="opacity:0.02" fill="#cbebd8" d="M 152.5,363.5 C 154.404,363.738 155.738,364.738 156.5,366.5C 154.596,366.262 153.262,365.262 152.5,363.5 Z"/></g>
<g><path style="opacity:0.084" fill="#d2d2d2" d="M 208.5,364.5 C 208.297,366.044 207.63,367.378 206.5,368.5C 206.863,369.183 207.196,369.85 207.5,370.5C 204.868,368.301 205.201,366.301 208.5,364.5 Z"/></g>
<g><path style="opacity:0.486" fill="#afe0c1" d="M 156.5,366.5 C 158.23,367.026 159.564,368.026 160.5,369.5C 158.368,369.446 157.035,368.446 156.5,366.5 Z"/></g>
<g><path style="opacity:0.525" fill="#acdfbf" d="M 160.5,369.5 C 162.23,370.026 163.564,371.026 164.5,372.5C 162.368,372.446 161.035,371.446 160.5,369.5 Z"/></g>
<g><path style="opacity:0.686" fill="#8cd2a6" d="M 334.5,373.5 C 334.5,372.167 333.833,371.5 332.5,371.5C 333.465,368.915 334.799,368.415 336.5,370C 336.192,371.459 335.525,372.626 334.5,373.5 Z"/></g>
<g><path style="opacity:0.961" fill="#a1dbb6" d="M 164.5,372.5 C 166.882,373.351 168.882,374.684 170.5,376.5C 167.733,376.13 165.733,374.796 164.5,372.5 Z"/></g>
<g><path style="opacity:0.91" fill="#97d6ac" d="M 382.5,363.5 C 382.197,369.077 380.53,374.077 377.5,378.5C 378.595,373.216 380.261,368.216 382.5,363.5 Z"/></g>
<g><path style="opacity:0.243" fill="#bfe7cf" d="M 170.5,376.5 C 172.027,376.427 173.027,377.094 173.5,378.5C 171.973,378.573 170.973,377.906 170.5,376.5 Z"/></g>
<g><path style="opacity:1" fill="#78cb96" d="M 329.5,373.5 C 328.972,374.721 328.305,375.887 327.5,377C 324.377,378.721 321.044,379.888 317.5,380.5C 321.164,377.665 325.164,375.332 329.5,373.5 Z"/></g>
<g><path style="opacity:0.29" fill="#bbe5cc" d="M 179.5,381.5 C 183.151,382.659 186.485,384.326 189.5,386.5C 185.58,385.873 182.247,384.207 179.5,381.5 Z"/></g>
<g><path style="opacity:1" fill="#58be7d" d="M 64.5,396.5 C 60.1879,392.546 56.8545,387.88 54.5,382.5C 55.4734,382.013 56.4734,381.513 57.5,381C 56.5494,380.282 56.3828,379.449 57,378.5C 60.8872,383.939 63.3872,389.939 64.5,396.5 Z"/></g>
<g><path style="opacity:0.953" fill="#7bcb98" d="M 317.5,380.5 C 315.082,383.71 311.748,385.376 307.5,385.5C 310.515,383.326 313.849,381.659 317.5,380.5 Z"/></g>
<g><path style="opacity:0.357" fill="#bae5cb" d="M 189.5,386.5 C 195.381,388.125 201.047,390.125 206.5,392.5C 200.334,391.668 194.667,389.668 189.5,386.5 Z"/></g>
<g><path style="opacity:1" fill="#8dd2a3" d="M 377.5,378.5 C 376.679,385.787 374.012,392.12 369.5,397.5C 371.93,390.984 374.597,384.65 377.5,378.5 Z"/></g>
<g><path style="opacity:0.737" fill="#98d8b1" d="M 302.5,387.5 C 299.859,389.453 296.859,390.953 293.5,392C 291.866,392.494 290.199,392.66 288.5,392.5C 292.94,390.462 297.607,388.796 302.5,387.5 Z"/></g>
<g><path style="opacity:0.302" fill="#b9e4ca" d="M 206.5,392.5 C 224.563,396.894 242.897,398.561 261.5,397.5C 250.674,398.659 239.674,398.826 228.5,398C 220.744,397.31 213.411,395.477 206.5,392.5 Z"/></g>
<g><path style="opacity:0.643" fill="#a6ddbb" d="M 280.5,394.5 C 280.082,395.222 279.416,395.722 278.5,396C 272.877,397.029 267.21,397.529 261.5,397.5C 267.653,396.198 273.986,395.198 280.5,394.5 Z"/></g>
<g><path style="opacity:0.99" fill="#77ca96" d="M 69.5,402.5 C 67.086,401.089 65.4194,399.089 64.5,396.5C 65.2216,396.082 65.7216,395.416 66,394.5C 67.6169,395.536 67.7836,396.703 66.5,398C 67.8333,399 69.1667,400 70.5,401C 69.944,401.383 69.6107,401.883 69.5,402.5 Z"/></g>
<g><path style="opacity:1" fill="#7dcb96" d="M 426.5,401.5 C 425.581,404.089 423.914,406.089 421.5,407.5C 421.377,403.96 423.043,401.96 426.5,401.5 Z"/></g>
<g><path style="opacity:0.012" fill="#d8f0e1" d="M 75.5,409.5 C 77.2624,410.262 78.2624,411.596 78.5,413.5C 76.7376,412.738 75.7376,411.404 75.5,409.5 Z"/></g>
<g><path style="opacity:1" fill="#7fcc98" d="M 417.5,411.5 C 414.812,416.188 411.145,419.855 406.5,422.5C 407.598,421.603 407.598,420.77 406.5,420C 409.521,416.123 413.188,413.289 417.5,411.5 Z"/></g>
<g><path style="opacity:0.659" fill="#b8e4c8" d="M 78.5,413.5 C 83.4397,416.77 87.7731,420.77 91.5,425.5C 86.5603,422.23 82.2269,418.23 78.5,413.5 Z"/></g>
<g><path style="opacity:1" fill="#7dcb96" d="M 305.5,417.5 C 304.557,420.109 302.89,422.109 300.5,423.5C 299.743,419.893 301.409,417.893 305.5,417.5 Z"/></g>
<g><path style="opacity:0.776" fill="#a7ddbb" d="M 93.5,427.5 C 95.7488,428.08 97.4154,429.413 98.5,431.5C 96.2512,430.92 94.5846,429.587 93.5,427.5 Z"/></g>
<g><path style="opacity:0.435" fill="#aee0c2" d="M 351.5,430.5 C 351.573,432.027 350.906,433.027 349.5,433.5C 349.427,431.973 350.094,430.973 351.5,430.5 Z"/></g>
<g><path style="opacity:0.506" fill="#acdfbf" d="M 98.5,431.5 C 101.089,432.419 103.089,434.086 104.5,436.5C 101.911,435.581 99.9108,433.914 98.5,431.5 Z"/></g>
<g><path style="opacity:1" fill="#8dd1a3" d="M 285.5,435.5 C 284.738,437.262 283.404,438.262 281.5,438.5C 282.598,437.603 282.598,436.77 281.5,436C 282.793,435.51 284.127,435.343 285.5,435.5 Z"/></g>
<g><path style="opacity:1" fill="#6fc78e" d="M 278.5,440.5 C 271.815,445.512 264.482,449.512 256.5,452.5C 255.833,452.5 255.167,452.5 254.5,452.5C 254.369,451.624 254.702,450.957 255.5,450.5C 258.759,448.969 262.093,447.636 265.5,446.5C 268.167,444.667 270.833,442.833 273.5,441C 275.134,440.506 276.801,440.34 278.5,440.5 Z"/></g>
<g><path style="opacity:0.533" fill="#aadebd" d="M 344.5,440.5 C 343.92,442.749 342.587,444.415 340.5,445.5C 341.08,443.251 342.413,441.585 344.5,440.5 Z"/></g>
<g><path style="opacity:0.561" fill="#a2dbb8" d="M 340.5,445.5 C 339.92,447.749 338.587,449.415 336.5,450.5C 337.08,448.251 338.413,446.585 340.5,445.5 Z"/></g>
<g><path style="opacity:0.776" fill="#a0dbb7" d="M 138.5,455.5 C 144.166,456.39 149.5,458.057 154.5,460.5C 148.834,459.61 143.5,457.943 138.5,455.5 Z"/></g>
<g><path style="opacity:0.29" fill="#b5e3c7" d="M 254.5,452.5 C 255.167,452.5 255.833,452.5 256.5,452.5C 251.618,455.464 246.285,457.464 240.5,458.5C 245.013,456.323 249.68,454.323 254.5,452.5 Z"/></g>
<g><path style="opacity:0.761" fill="#88d1a4" d="M 332.5,454.5 C 329.5,459.5 325.5,463.5 320.5,466.5C 324.167,462.167 328.167,458.167 332.5,454.5 Z"/></g>
<g><path style="opacity:0.341" fill="#b0e1c3" d="M 240.5,458.5 C 238.401,459.612 236.067,460.279 233.5,460.5C 235.438,458.837 237.772,458.171 240.5,458.5 Z"/></g>
<g><path style="opacity:1" fill="#87d0a2" d="M 154.5,460.5 C 159.894,460.124 164.894,461.124 169.5,463.5C 164.206,463.375 159.206,462.375 154.5,460.5 Z"/></g>
<g><path style="opacity:1" fill="#73c890" d="M 362.5,455.5 C 356.151,459.341 349.484,462.675 342.5,465.5C 343.476,464.185 344.476,462.852 345.5,461.5C 349.747,460.706 353.414,458.872 356.5,456C 358.473,455.505 360.473,455.338 362.5,455.5 Z"/></g>
<g><path style="opacity:0.392" fill="#b2e1c5" d="M 224.5,462.5 C 220.733,463.795 216.733,464.461 212.5,464.5C 216.21,462.864 220.21,462.198 224.5,462.5 Z"/></g>
<g><path style="opacity:0.577" fill="#a6ddbc" d="M 169.5,463.5 C 183.152,464.284 196.819,464.618 210.5,464.5C 205.177,465.166 199.677,465.499 194,465.5C 185.612,465.673 177.445,465.006 169.5,463.5 Z"/></g>
<g><path style="opacity:0.365" fill="#b9e5ca" d="M 342.5,465.5 C 341.22,466.931 339.553,467.598 337.5,467.5C 338.78,466.069 340.447,465.402 342.5,465.5 Z"/></g>
<g><path style="opacity:1" fill="#76c992" d="M 337.5,467.5 C 334.744,469.204 331.744,470.537 328.5,471.5C 328.36,469.876 329.027,468.71 330.5,468C 332.81,467.503 335.143,467.337 337.5,467.5 Z"/></g>
<g><path style="opacity:0.749" fill="#8fd4a9" d="M 320.5,466.5 C 319.089,468.914 317.089,470.581 314.5,471.5C 315.911,469.086 317.911,467.419 320.5,466.5 Z"/></g>
<g><path style="opacity:1" fill="#85d0a0" d="M 314.5,471.5 C 314.75,472.922 315.583,473.922 317,474.5C 320.293,472.792 323.793,471.792 327.5,471.5C 320.94,474.299 314.106,476.632 307,478.5C 305.174,477.99 305.007,477.156 306.5,476C 309.329,474.644 311.996,473.144 314.5,471.5 Z"/></g>
</svg>
