<?xml version="1.0" encoding="UTF-8"?>
<!DOCTYPE svg PUBLIC "-//W3C//DTD SVG 1.1//EN" "http://www.w3.org/Graphics/SVG/1.1/DTD/svg11.dtd">
<svg xmlns="http://www.w3.org/2000/svg" version="1.1" width="512px" height="512px" style="shape-rendering:geometricPrecision; text-rendering:geometricPrecision; image-rendering:optimizeQuality; fill-rule:evenodd; clip-rule:evenodd" xmlns:xlink="http://www.w3.org/1999/xlink">
<g><path style="opacity:0.997" fill="#e28024" d="M 10.5,-0.5 C 28.5,-0.5 46.5,-0.5 64.5,-0.5C 43.535,20.9653 22.3683,42.2986 1,63.5C 0.78997,61.9419 0.28997,60.6085 -0.5,59.5C -0.5,43.1667 -0.5,26.8333 -0.5,10.5C 2.16667,5.83333 5.83333,2.16667 10.5,-0.5 Z"/></g>
<g><path style="opacity:0.999" fill="#e17926" d="M 64.5,-0.5 C 74.1667,-0.5 83.8333,-0.5 93.5,-0.5C 62.5,31.1667 31.1667,62.5 -0.5,93.5C -0.5,82.1667 -0.5,70.8333 -0.5,59.5C 0.28997,60.6085 0.78997,61.9419 1,63.5C 22.3683,42.2986 43.535,20.9653 64.5,-0.5 Z"/></g>
<g><path style="opacity:1" fill="#e07328" d="M 93.5,-0.5 C 103.167,-0.5 112.833,-0.5 122.5,-0.5C 104.5,17.8333 86.5,36.1667 68.5,54.5C 68.5,54.8333 68.5,55.1667 68.5,55.5C 60.3771,57.2891 55.7105,62.2891 54.5,70.5C 54.1667,70.5 53.8333,70.5 53.5,70.5C 53.5654,70.0618 53.3988,69.7284 53,69.5C 35.2986,87.3684 17.4652,105.035 -0.5,122.5C -0.5,112.833 -0.5,103.167 -0.5,93.5C 31.1667,62.5 62.5,31.1667 93.5,-0.5 Z"/></g>
<g><path style="opacity:1" fill="#e06d29" d="M 122.5,-0.5 C 132.167,-0.5 141.833,-0.5 151.5,-0.5C 133.5,17.8333 115.5,36.1667 97.5,54.5C 87.8333,54.5 78.1667,54.5 68.5,54.5C 86.5,36.1667 104.5,17.8333 122.5,-0.5 Z"/></g>
<g><path style="opacity:1" fill="#df662b" d="M 151.5,-0.5 C 162.833,-0.5 174.167,-0.5 185.5,-0.5C 167.5,17.8333 149.5,36.1667 131.5,54.5C 120.167,54.5 108.833,54.5 97.5,54.5C 115.5,36.1667 133.5,17.8333 151.5,-0.5 Z"/></g>
<g><path style="opacity:1" fill="#de602d" d="M 185.5,-0.5 C 195.167,-0.5 204.833,-0.5 214.5,-0.5C 196.702,17.7986 178.702,35.9653 160.5,54C 150.839,54.4998 141.172,54.6665 131.5,54.5C 149.5,36.1667 167.5,17.8333 185.5,-0.5 Z"/></g>
<g><path style="opacity:1" fill="#de613a" d="M 214.5,-0.5 C 224.5,-0.5 234.5,-0.5 244.5,-0.5C 226.702,17.7986 208.702,35.9653 190.5,54C 200.161,54.4998 209.828,54.6665 219.5,54.5C 230.833,54.5 242.167,54.5 253.5,54.5C 262.833,54.5 272.167,54.5 281.5,54.5C 297.833,54.5 314.167,54.5 330.5,54.5C 291.004,55.4986 251.337,55.8319 211.5,55.5C 163.833,55.5 116.167,55.5 68.5,55.5C 68.5,55.1667 68.5,54.8333 68.5,54.5C 78.1667,54.5 87.8333,54.5 97.5,54.5C 108.833,54.5 120.167,54.5 131.5,54.5C 141.172,54.6665 150.839,54.4998 160.5,54C 178.702,35.9653 196.702,17.7986 214.5,-0.5 Z"/></g>
<g><path style="opacity:1" fill="#dc5431" d="M 244.5,-0.5 C 254.167,-0.5 263.833,-0.5 273.5,-0.5C 255.5,17.8333 237.5,36.1667 219.5,54.5C 209.828,54.6665 200.161,54.4998 190.5,54C 208.702,35.9653 226.702,17.7986 244.5,-0.5 Z"/></g>
<g><path style="opacity:1" fill="#db4d32" d="M 273.5,-0.5 C 284.833,-0.5 296.167,-0.5 307.5,-0.5C 289.5,17.8333 271.5,36.1667 253.5,54.5C 242.167,54.5 230.833,54.5 219.5,54.5C 237.5,36.1667 255.5,17.8333 273.5,-0.5 Z"/></g>
<g><path style="opacity:0.998" fill="#db4734" d="M 307.5,-0.5 C 311.5,-0.5 315.5,-0.5 319.5,-0.5C 323.16,1.16041 325.827,3.82707 327.5,7.5C 312.167,23.1667 296.833,38.8333 281.5,54.5C 272.167,54.5 262.833,54.5 253.5,54.5C 271.5,36.1667 289.5,17.8333 307.5,-0.5 Z"/></g>
<g><path style="opacity:0.975" fill="#f6df7d" d="M 483.5,-0.5 C 487.833,-0.5 492.167,-0.5 496.5,-0.5C 499.391,0.789131 501.725,2.78913 503.5,5.5C 496.167,13.1667 488.833,20.8333 481.5,28.5C 480.609,27.8902 479.609,27.5569 478.5,27.5C 475.481,25.6629 472.148,25.1629 468.5,26C 465.669,28.0007 463.003,30.1673 460.5,32.5C 460.167,31.5 459.5,30.8333 458.5,30.5C 457.5,29.1667 456.5,27.8333 455.5,26.5C 464.226,16.7722 473.559,7.77222 483.5,-0.5 Z"/></g>
<g><path style="opacity:0.991" fill="#f1c96b" d="M 503.5,5.5 C 505.167,6.5 506.5,7.83333 507.5,9.5C 500.89,17.7787 493.556,25.4454 485.5,32.5C 485.167,32.5 484.833,32.5 484.5,32.5C 483.833,32.5 483.5,32.1667 483.5,31.5C 482.833,30.5 482.167,29.5 481.5,28.5C 488.833,20.8333 496.167,13.1667 503.5,5.5 Z"/></g>
<g><path style="opacity:0.986" fill="#da4036" d="M 327.5,7.5 C 328.558,8.60023 329.392,9.93356 330,11.5C 330.5,25.8295 330.667,40.1628 330.5,54.5C 314.167,54.5 297.833,54.5 281.5,54.5C 296.833,38.8333 312.167,23.1667 327.5,7.5 Z"/></g>
<g><path style="opacity:0.997" fill="#e28024" d="M 444.5,17.5 C 393.368,68.132 342.368,118.965 291.5,170C 290.906,170.464 290.239,170.631 289.5,170.5C 287.5,169.167 285.833,167.5 284.5,165.5C 318.17,132.833 350.837,99.8333 382.5,66.5C 383.11,65.609 383.443,64.609 383.5,63.5C 398.632,48.8685 413.632,34.0352 428.5,19C 433.676,15.1819 439.009,14.6819 444.5,17.5 Z"/></g>
<g><path style="opacity:1" fill="#e17926" d="M 444.5,17.5 C 446.404,17.7376 447.738,18.7376 448.5,20.5C 397.451,72.5493 345.784,123.883 293.5,174.5C 291.833,173.5 290.5,172.167 289.5,170.5C 290.239,170.631 290.906,170.464 291.5,170C 342.368,118.965 393.368,68.132 444.5,17.5 Z"/></g>
<g><path style="opacity:1" fill="#ecb459" d="M 507.5,9.5 C 509.074,10.9842 510.407,12.6508 511.5,14.5C 511.5,15.5 511.5,16.5 511.5,17.5C 504.167,23.8333 496.833,30.1667 489.5,36.5C 487.833,35.5 486.5,34.1667 485.5,32.5C 493.556,25.4454 500.89,17.7787 507.5,9.5 Z"/></g>
<g><path style="opacity:1" fill="#e07328" d="M 448.5,20.5 C 450.167,21.5 451.5,22.8333 452.5,24.5C 402.251,76.2499 351.418,127.583 300,178.5C 299.536,179.094 299.369,179.761 299.5,180.5C 297.167,178.833 295.167,176.833 293.5,174.5C 345.784,123.883 397.451,72.5493 448.5,20.5 Z"/></g>
<g><path style="opacity:0.921" fill="#e79c46" d="M 511.5,17.5 C 511.5,20.5 511.5,23.5 511.5,26.5C 507.616,33.0567 502.616,38.7234 496.5,43.5C 493.833,41.5 491.5,39.1667 489.5,36.5C 496.833,30.1667 504.167,23.8333 511.5,17.5 Z"/></g>
<g><path style="opacity:0.999" fill="#e06d29" d="M 452.5,24.5 C 453.5,25.1667 454.5,25.8333 455.5,26.5C 456.5,27.8333 457.5,29.1667 458.5,30.5C 406.75,80.7491 355.417,131.582 304.5,183C 303.906,183.464 303.239,183.631 302.5,183.5C 301.167,182.833 300.167,181.833 299.5,180.5C 299.369,179.761 299.536,179.094 300,178.5C 351.418,127.583 402.251,76.2499 452.5,24.5 Z"/></g>
<g><path style="opacity:1" fill="#e8f1fd" d="M 478.5,27.5 C 440.584,63.9152 403.084,100.915 366,138.5C 365.517,139.448 365.351,140.448 365.5,141.5C 365.167,141.5 364.833,141.5 364.5,141.5C 363.246,137.152 363.246,132.818 364.5,128.5C 396.833,96.8333 428.833,64.8333 460.5,32.5C 463.003,30.1673 465.669,28.0007 468.5,26C 472.148,25.1629 475.481,25.6629 478.5,27.5 Z"/></g>
<g><path style="opacity:1" fill="#d9ebfd" d="M 478.5,27.5 C 479.609,27.5569 480.609,27.8902 481.5,28.5C 482.167,29.5 482.833,30.5 483.5,31.5C 445.167,69.1667 407.167,107.167 369.5,145.5C 367.833,144.5 366.5,143.167 365.5,141.5C 365.351,140.448 365.517,139.448 366,138.5C 403.084,100.915 440.584,63.9152 478.5,27.5 Z"/></g>
<g><path style="opacity:1" fill="#e07036" d="M 458.5,30.5 C 459.5,30.8333 460.167,31.5 460.5,32.5C 428.833,64.8333 396.833,96.8333 364.5,128.5C 344.5,146.827 324.833,166.161 305.5,186.5C 304.167,185.833 303.167,184.833 302.5,183.5C 303.239,183.631 303.906,183.464 304.5,183C 355.417,131.582 406.75,80.7491 458.5,30.5 Z"/></g>
<g><path style="opacity:1" fill="#cfe5fb" d="M 483.5,31.5 C 483.5,32.1667 483.833,32.5 484.5,32.5C 486.518,39.8053 484.518,45.8053 478.5,50.5C 446.701,81.7985 415.035,113.299 383.5,145C 378.853,147.95 374.187,148.117 369.5,145.5C 407.167,107.167 445.167,69.1667 483.5,31.5 Z"/></g>
<g><path style="opacity:1" fill="#d76836" d="M 484.5,32.5 C 484.833,32.5 485.167,32.5 485.5,32.5C 486.5,34.1667 487.833,35.5 489.5,36.5C 491.5,39.1667 493.833,41.5 496.5,43.5C 492.833,47.8333 488.833,51.8333 484.5,55.5C 482.833,54.1667 481.167,52.8333 479.5,51.5C 479.5,50.8333 479.167,50.5 478.5,50.5C 484.518,45.8053 486.518,39.8053 484.5,32.5 Z"/></g>
<g><path style="opacity:1" fill="#b53836" d="M 478.5,50.5 C 479.167,50.5 479.5,50.8333 479.5,51.5C 446.752,85.7495 413.418,119.583 379.5,153C 378.906,153.464 378.239,153.631 377.5,153.5C 376.167,152.5 374.833,151.5 373.5,150.5C 372.084,148.821 370.75,147.154 369.5,145.5C 374.187,148.117 378.853,147.95 383.5,145C 415.035,113.299 446.701,81.7985 478.5,50.5 Z"/></g>
<g><path style="opacity:0.998" fill="#e3effe" d="M 330.5,54.5 C 344.171,54.3334 357.837,54.5001 371.5,55C 376.796,56.1471 380.796,58.9804 383.5,63.5C 383.443,64.609 383.11,65.609 382.5,66.5C 349.167,99.1667 316.167,132.167 283.5,165.5C 266.5,182.167 249.5,198.833 232.5,215.5C 232.5,208.833 232.5,202.167 232.5,195.5C 232.5,188.5 232.5,181.5 232.5,174.5C 232.5,166.167 232.5,157.833 232.5,149.5C 232.5,142.5 232.5,135.5 232.5,128.5C 232.666,124.486 232.499,120.486 232,116.5C 231.4,114.09 230.234,112.09 228.5,110.5C 224.399,105.573 219.066,103.573 212.5,104.5C 204.167,104.5 195.833,104.5 187.5,104.5C 180.167,104.5 172.833,104.5 165.5,104.5C 158.5,104.5 151.5,104.5 144.5,104.5C 136.833,104.5 129.167,104.5 121.5,104.5C 135.661,103.669 149.994,103.169 164.5,103C 180.368,87.2986 196.035,71.4652 211.5,55.5C 251.337,55.8319 291.004,55.4986 330.5,54.5 Z"/></g>
<g><path style="opacity:1" fill="#e9f2fe" d="M 68.5,55.5 C 116.167,55.5 163.833,55.5 211.5,55.5C 196.035,71.4652 180.368,87.2986 164.5,103C 149.994,103.169 135.661,103.669 121.5,104.5C 113.925,106.24 109.092,110.907 107,118.5C 106.5,132.829 106.333,147.163 106.5,161.5C 89.1667,178.5 71.8333,195.5 54.5,212.5C 54.5,165.167 54.5,117.833 54.5,70.5C 55.7105,62.2891 60.3771,57.2891 68.5,55.5 Z"/></g>
<g><path style="opacity:1" fill="#bc322e" d="M 479.5,51.5 C 481.167,52.8333 482.833,54.1667 484.5,55.5C 485.5,56.8333 486.5,58.1667 487.5,59.5C 454.752,93.7495 421.418,127.583 387.5,161C 386.906,161.464 386.239,161.631 385.5,161.5C 383.167,159.5 380.833,157.5 378.5,155.5C 378.167,154.833 377.833,154.167 377.5,153.5C 378.239,153.631 378.906,153.464 379.5,153C 413.418,119.583 446.752,85.7495 479.5,51.5 Z"/></g>
<g><path style="opacity:1" fill="#c5322e" d="M 487.5,59.5 C 490.243,61.2393 492.243,63.5726 493.5,66.5C 459.117,99.8828 425.45,133.883 392.5,168.5C 390.5,166.833 388.5,165.167 386.5,163.5C 386.167,162.833 385.833,162.167 385.5,161.5C 386.239,161.631 386.906,161.464 387.5,161C 421.418,127.583 454.752,93.7495 487.5,59.5 Z"/></g>
<g><path style="opacity:0.999" fill="#cb2f30" d="M 493.5,66.5 C 496.139,71.1088 495.972,75.7754 493,80.5C 461.632,112.035 430.132,143.368 398.5,174.5C 396.167,172.833 394.167,170.833 392.5,168.5C 425.45,133.883 459.117,99.8828 493.5,66.5 Z"/></g>
<g><path style="opacity:0.997" fill="#e06d29" d="M 53.5,70.5 C 53.5,79.8333 53.5,89.1667 53.5,98.5C 35.5,116.167 17.5,133.833 -0.5,151.5C -0.5,141.833 -0.5,132.167 -0.5,122.5C 17.4652,105.035 35.2986,87.3684 53,69.5C 53.3988,69.7284 53.5654,70.0618 53.5,70.5 Z"/></g>
<g><path style="opacity:1" fill="#7ac7f8" d="M 121.5,104.5 C 129.167,104.5 136.833,104.5 144.5,104.5C 132.535,116.965 120.369,129.298 108,141.5C 107.5,148.492 107.334,155.492 107.5,162.5C 107.5,169.833 107.5,177.167 107.5,184.5C 107.5,192.833 107.5,201.167 107.5,209.5C 107.5,211.5 107.5,213.5 107.5,215.5C 106.503,197.674 106.17,179.674 106.5,161.5C 106.333,147.163 106.5,132.829 107,118.5C 109.092,110.907 113.925,106.24 121.5,104.5 Z"/></g>
<g><path style="opacity:1" fill="#6dbef8" d="M 144.5,104.5 C 151.5,104.5 158.5,104.5 165.5,104.5C 146.5,124.167 127.167,143.5 107.5,162.5C 107.334,155.492 107.5,148.492 108,141.5C 120.369,129.298 132.535,116.965 144.5,104.5 Z"/></g>
<g><path style="opacity:1" fill="#6ab8f8" d="M 165.5,104.5 C 172.833,104.5 180.167,104.5 187.5,104.5C 161.167,131.5 134.5,158.167 107.5,184.5C 107.5,177.167 107.5,169.833 107.5,162.5C 127.167,143.5 146.5,124.167 165.5,104.5 Z"/></g>
<g><path style="opacity:1" fill="#66b1f8" d="M 187.5,104.5 C 195.833,104.5 204.167,104.5 212.5,104.5C 177.833,139.833 142.833,174.833 107.5,209.5C 107.5,201.167 107.5,192.833 107.5,184.5C 134.5,158.167 161.167,131.5 187.5,104.5 Z"/></g>
<g><path style="opacity:1" fill="#62abf8" d="M 212.5,104.5 C 219.066,103.573 224.399,105.573 228.5,110.5C 189.833,148.5 151.5,186.833 113.5,225.5C 109.977,223.127 107.977,219.793 107.5,215.5C 107.5,213.5 107.5,211.5 107.5,209.5C 142.833,174.833 177.833,139.833 212.5,104.5 Z"/></g>
<g><path style="opacity:1" fill="#5fa5f8" d="M 228.5,110.5 C 230.234,112.09 231.4,114.09 232,116.5C 232.499,120.486 232.666,124.486 232.5,128.5C 198.5,161.833 164.833,195.5 131.5,229.5C 127.154,229.666 122.821,229.499 118.5,229C 116.416,228.303 114.749,227.136 113.5,225.5C 151.5,186.833 189.833,148.5 228.5,110.5 Z"/></g>
<g><path style="opacity:0.997" fill="#df662b" d="M 53.5,98.5 C 53.5,109.833 53.5,121.167 53.5,132.5C 35.5,150.167 17.5,167.833 -0.5,185.5C -0.5,174.167 -0.5,162.833 -0.5,151.5C 17.5,133.833 35.5,116.167 53.5,98.5 Z"/></g>
<g><path style="opacity:1" fill="#e38e3b" d="M 382.5,66.5 C 350.837,99.8333 318.17,132.833 284.5,165.5C 284.167,165.5 283.833,165.5 283.5,165.5C 316.167,132.167 349.167,99.1667 382.5,66.5 Z"/></g>
<g><path style="opacity:1" fill="#5b9ff8" d="M 232.5,128.5 C 232.5,135.5 232.5,142.5 232.5,149.5C 205.5,175.833 178.833,202.5 152.5,229.5C 145.5,229.5 138.5,229.5 131.5,229.5C 164.833,195.5 198.5,161.833 232.5,128.5 Z"/></g>
<g><path style="opacity:0.997" fill="#de602d" d="M 53.5,132.5 C 53.5,142.167 53.5,151.833 53.5,161.5C 35.5,179.167 17.5,196.833 -0.5,214.5C -0.5,204.833 -0.5,195.167 -0.5,185.5C 17.5,167.833 35.5,150.167 53.5,132.5 Z"/></g>
<g><path style="opacity:1" fill="#de622d" d="M 364.5,128.5 C 363.246,132.818 363.246,137.152 364.5,141.5C 347.5,159.167 330.167,176.5 312.5,193.5C 311.833,193.167 311.167,192.833 310.5,192.5C 308.833,190.5 307.167,188.5 305.5,186.5C 324.833,166.161 344.5,146.827 364.5,128.5 Z"/></g>
<g><path style="opacity:1" fill="#dc5630" d="M 364.5,141.5 C 364.833,141.5 365.167,141.5 365.5,141.5C 366.5,143.167 367.833,144.5 369.5,145.5C 370.75,147.154 372.084,148.821 373.5,150.5C 356.868,167.632 340.035,184.632 323,201.5C 322.536,202.094 322.369,202.761 322.5,203.5C 318.833,200.5 315.5,197.167 312.5,193.5C 330.167,176.5 347.5,159.167 364.5,141.5 Z"/></g>
<g><path style="opacity:1" fill="#5899f8" d="M 232.5,149.5 C 232.5,157.833 232.5,166.167 232.5,174.5C 213.833,192.5 195.5,210.833 177.5,229.5C 169.167,229.5 160.833,229.5 152.5,229.5C 178.833,202.5 205.5,175.833 232.5,149.5 Z"/></g>
<g><path style="opacity:1" fill="#db4d33" d="M 373.5,150.5 C 374.833,151.5 376.167,152.5 377.5,153.5C 377.833,154.167 378.167,154.833 378.5,155.5C 361.5,173.167 344.167,190.5 326.5,207.5C 324.833,206.5 323.5,205.167 322.5,203.5C 322.369,202.761 322.536,202.094 323,201.5C 340.035,184.632 356.868,167.632 373.5,150.5 Z"/></g>
<g><path style="opacity:0.997" fill="#dd5a2f" d="M 53.5,161.5 C 53.6665,171.506 53.4998,181.506 53,191.5C 35.2986,209.368 17.4652,227.035 -0.5,244.5C -0.5,234.5 -0.5,224.5 -0.5,214.5C 17.5,196.833 35.5,179.167 53.5,161.5 Z"/></g>
<g><path style="opacity:1" fill="#e2effd" d="M 106.5,161.5 C 106.17,179.674 106.503,197.674 107.5,215.5C 107.977,219.793 109.977,223.127 113.5,225.5C 114.749,227.136 116.416,228.303 118.5,229C 122.821,229.499 127.154,229.666 131.5,229.5C 138.5,229.5 145.5,229.5 152.5,229.5C 160.833,229.5 169.167,229.5 177.5,229.5C 184.5,229.5 191.5,229.5 198.5,229.5C 205.508,229.666 212.508,229.5 219.5,229C 222.703,225.629 226.036,222.462 229.5,219.5C 231.5,221.833 233.5,224.167 235.5,226.5C 224.202,238.298 212.702,249.965 201,261.5C 200.722,260.584 200.222,259.918 199.5,259.5C 170.165,259.333 140.831,259.5 111.5,260C 110.069,260.465 108.903,261.299 108,262.5C 107.333,267.833 107.333,273.167 108,278.5C 108.833,279.333 109.667,280.167 110.5,281C 138.165,281.5 165.831,281.667 193.5,281.5C 192.793,284.786 192.46,288.119 192.5,291.5C 191.515,295.076 190.848,298.742 190.5,302.5C 190.5,303.5 190.5,304.5 190.5,305.5C 163.995,305.169 137.661,305.502 111.5,306.5C 109.887,306.944 108.72,307.944 108,309.5C 107.333,314.5 107.333,319.5 108,324.5C 108.833,325.333 109.667,326.167 110.5,327C 117.158,327.5 123.825,327.666 130.5,327.5C 108.368,350.132 86.035,372.632 63.5,395C 60.5184,395.498 57.5184,395.665 54.5,395.5C 54.5,392.5 54.5,389.5 54.5,386.5C 54.5,363.167 54.5,339.833 54.5,316.5C 54.5,281.833 54.5,247.167 54.5,212.5C 71.8333,195.5 89.1667,178.5 106.5,161.5 Z"/></g>
<g><path style="opacity:1" fill="#da4336" d="M 378.5,155.5 C 380.833,157.5 383.167,159.5 385.5,161.5C 385.833,162.167 386.167,162.833 386.5,163.5C 386.631,164.239 386.464,164.906 386,165.5C 368.965,182.368 352.132,199.368 335.5,216.5C 334.167,215.5 332.833,214.5 331.5,213.5C 329.833,211.5 328.167,209.5 326.5,207.5C 344.167,190.5 361.5,173.167 378.5,155.5 Z"/></g>
<g><path style="opacity:1" fill="#d8363a" d="M 386.5,163.5 C 388.5,165.167 390.5,166.833 392.5,168.5C 394.167,170.833 396.167,172.833 398.5,174.5C 394.167,179.167 389.833,183.833 385.5,188.5C 385.167,188.5 384.833,188.5 384.5,188.5C 371.5,201.167 358.5,213.833 345.5,226.5C 341.833,223.5 338.5,220.167 335.5,216.5C 352.132,199.368 368.965,182.368 386,165.5C 386.464,164.906 386.631,164.239 386.5,163.5 Z"/></g>
<g><path style="opacity:1" fill="#565656" d="M 283.5,165.5 C 283.833,165.5 284.167,165.5 284.5,165.5C 285.833,167.5 287.5,169.167 289.5,170.5C 290.5,172.167 291.833,173.5 293.5,174.5C 295.167,176.833 297.167,178.833 299.5,180.5C 300.167,181.833 301.167,182.833 302.5,183.5C 303.167,184.833 304.167,185.833 305.5,186.5C 307.167,188.5 308.833,190.5 310.5,192.5C 292.252,209.246 274.418,226.579 257,244.5C 256.536,245.094 256.369,245.761 256.5,246.5C 254.833,245.167 253.167,243.833 251.5,242.5C 250.167,240.5 248.5,238.833 246.5,237.5C 243.167,233.5 239.5,229.833 235.5,226.5C 233.5,224.167 231.5,221.833 229.5,219.5C 230.5,218.167 231.5,216.833 232.5,215.5C 249.5,198.833 266.5,182.167 283.5,165.5 Z"/></g>
<g><path style="opacity:1" fill="#5392f8" d="M 232.5,174.5 C 232.5,181.5 232.5,188.5 232.5,195.5C 220.833,206.5 209.5,217.833 198.5,229.5C 191.5,229.5 184.5,229.5 177.5,229.5C 195.5,210.833 213.833,192.5 232.5,174.5 Z"/></g>
<g><path style="opacity:0.997" fill="#dd5835" d="M 53.5,70.5 C 53.8333,70.5 54.1667,70.5 54.5,70.5C 54.5,117.833 54.5,165.167 54.5,212.5C 54.5,247.167 54.5,281.833 54.5,316.5C 54.1667,316.5 53.8333,316.5 53.5,316.5C 53.5,314.5 53.5,312.5 53.5,310.5C 53.5,306.5 53.5,302.5 53.5,298.5C 53.5,283.833 53.5,269.167 53.5,254.5C 53.6665,243.162 53.4999,231.828 53,220.5C 35.2986,238.368 17.4652,256.035 -0.5,273.5C -0.5,263.833 -0.5,254.167 -0.5,244.5C 17.4652,227.035 35.2986,209.368 53,191.5C 53.4998,181.506 53.6665,171.506 53.5,161.5C 53.5,151.833 53.5,142.167 53.5,132.5C 53.5,121.167 53.5,109.833 53.5,98.5C 53.5,89.1667 53.5,79.8333 53.5,70.5 Z"/></g>
<g><path style="opacity:1" fill="#4e4e4e" d="M 310.5,192.5 C 311.167,192.833 311.833,193.167 312.5,193.5C 315.5,197.167 318.833,200.5 322.5,203.5C 323.5,205.167 324.833,206.5 326.5,207.5C 328.167,209.5 329.833,211.5 331.5,213.5C 313.167,231.167 295.167,249.167 277.5,267.5C 277.167,267.5 276.833,267.5 276.5,267.5C 274.167,264.5 271.5,261.833 268.5,259.5C 265.833,256.167 262.833,253.167 259.5,250.5C 258.5,249.167 257.5,247.833 256.5,246.5C 256.369,245.761 256.536,245.094 257,244.5C 274.418,226.579 292.252,209.246 310.5,192.5 Z"/></g>
<g><path style="opacity:1" fill="#508df7" d="M 232.5,195.5 C 232.5,202.167 232.5,208.833 232.5,215.5C 231.5,216.833 230.5,218.167 229.5,219.5C 226.036,222.462 222.703,225.629 219.5,229C 212.508,229.5 205.508,229.666 198.5,229.5C 209.5,217.833 220.833,206.5 232.5,195.5 Z"/></g>
<g><path style="opacity:1" fill="#95b0dd" d="M 384.5,188.5 C 384.5,193.833 384.5,199.167 384.5,204.5C 365.833,222.5 347.5,240.833 329.5,259.5C 324.156,259.666 318.823,259.499 313.5,259C 324.444,248.224 335.111,237.391 345.5,226.5C 358.5,213.833 371.5,201.167 384.5,188.5 Z"/></g>
<g><path style="opacity:1" fill="#484848" d="M 331.5,213.5 C 332.833,214.5 334.167,215.5 335.5,216.5C 338.5,220.167 341.833,223.5 345.5,226.5C 335.111,237.391 324.444,248.224 313.5,259C 318.823,259.499 324.156,259.666 329.5,259.5C 333.042,259.187 336.375,259.521 339.5,260.5C 330.161,260.334 320.827,260.5 311.5,261C 305.329,268.004 298.995,274.837 292.5,281.5C 286.892,277.561 281.892,272.894 277.5,267.5C 295.167,249.167 313.167,231.167 331.5,213.5 Z"/></g>
<g><path style="opacity:0.998" fill="#db4e32" d="M 53.5,254.5 C 42.0349,265.465 30.7016,276.631 19.5,288C 16.9568,288.14 14.6234,288.806 12.5,290C 13.1667,290.333 13.8333,290.667 14.5,291C 9.15661,291.657 4.15661,293.157 -0.5,295.5C -0.5,288.167 -0.5,280.833 -0.5,273.5C 17.4652,256.035 35.2986,238.368 53,220.5C 53.4999,231.828 53.6665,243.162 53.5,254.5 Z"/></g>
<g><path style="opacity:1" fill="#9db9e3" d="M 384.5,204.5 C 384.5,213.167 384.5,221.833 384.5,230.5C 371.202,243.298 358.035,256.298 345,269.5C 344.809,271.708 344.309,273.708 343.5,275.5C 343.666,271.486 343.499,267.486 343,263.5C 342.28,261.944 341.113,260.944 339.5,260.5C 336.375,259.521 333.042,259.187 329.5,259.5C 347.5,240.833 365.833,222.5 384.5,204.5 Z"/></g>
<g><path style="opacity:1" fill="#d2e0f6" d="M 235.5,226.5 C 239.5,229.833 243.167,233.5 246.5,237.5C 228.833,255.833 210.833,273.833 192.5,291.5C 192.46,288.119 192.793,284.786 193.5,281.5C 194.888,274.002 196.888,266.668 199.5,259.5C 200.222,259.918 200.722,260.584 201,261.5C 212.702,249.965 224.202,238.298 235.5,226.5 Z"/></g>
<g><path style="opacity:1" fill="#c5d8f1" d="M 246.5,237.5 C 248.5,238.833 250.167,240.5 251.5,242.5C 231.783,263.218 211.45,283.218 190.5,302.5C 190.848,298.742 191.515,295.076 192.5,291.5C 210.833,273.833 228.833,255.833 246.5,237.5 Z"/></g>
<g><path style="opacity:1" fill="#a8c3e9" d="M 384.5,230.5 C 384.666,239.173 384.5,247.84 384,256.5C 367.632,272.701 351.465,289.035 335.5,305.5C 328.5,305.5 321.5,305.5 314.5,305.5C 322.167,297.5 329.833,289.5 337.5,281.5C 341.167,281.167 343.167,279.167 343.5,275.5C 344.309,273.708 344.809,271.708 345,269.5C 358.035,256.298 371.202,243.298 384.5,230.5 Z"/></g>
<g><path style="opacity:1" fill="#b8cde9" d="M 251.5,242.5 C 253.167,243.833 254.833,245.167 256.5,246.5C 257.5,247.833 258.5,249.167 259.5,250.5C 237.833,271.833 216.167,293.167 194.5,314.5C 192.433,312.682 191.1,310.349 190.5,307.5C 164.175,306.5 137.842,306.167 111.5,306.5C 137.661,305.502 163.995,305.169 190.5,305.5C 190.5,304.5 190.5,303.5 190.5,302.5C 211.45,283.218 231.783,263.218 251.5,242.5 Z"/></g>
<g><path style="opacity:1" fill="#acc5ea" d="M 259.5,250.5 C 262.833,253.167 265.833,256.167 268.5,259.5C 249.035,279.465 229.368,299.299 209.5,319C 207.19,319.497 204.857,319.663 202.5,319.5C 201.833,319.5 201.167,319.5 200.5,319.5C 198.131,318.31 196.131,316.643 194.5,314.5C 216.167,293.167 237.833,271.833 259.5,250.5 Z"/></g>
<g><path style="opacity:1" fill="#b1caec" d="M 384.5,188.5 C 384.833,188.5 385.167,188.5 385.5,188.5C 385.5,213.5 385.5,238.5 385.5,263.5C 384.673,268.985 384.173,274.652 384,280.5C 370.271,294.062 356.771,307.728 343.5,321.5C 343.666,317.486 343.499,313.486 343,309.5C 341.117,306.976 338.617,305.642 335.5,305.5C 351.465,289.035 367.632,272.701 384,256.5C 384.5,247.84 384.666,239.173 384.5,230.5C 384.5,221.833 384.5,213.167 384.5,204.5C 384.5,199.167 384.5,193.833 384.5,188.5 Z"/></g>
<g><path style="opacity:1" fill="#585859" d="M 199.5,259.5 C 196.888,266.668 194.888,274.002 193.5,281.5C 165.831,281.667 138.165,281.5 110.5,281C 109.667,280.167 108.833,279.333 108,278.5C 107.333,273.167 107.333,267.833 108,262.5C 108.903,261.299 110.069,260.465 111.5,260C 140.831,259.5 170.165,259.333 199.5,259.5 Z"/></g>
<g><path style="opacity:1" fill="#202020" d="M 339.5,260.5 C 333.369,267.131 327.036,273.631 320.5,280C 318.618,280.198 316.952,280.698 315.5,281.5C 312.5,281.5 309.5,281.5 306.5,281.5C 301.833,281.5 297.167,281.5 292.5,281.5C 298.995,274.837 305.329,268.004 311.5,261C 320.827,260.5 330.161,260.334 339.5,260.5 Z"/></g>
<g><path style="opacity:1" fill="#a0bce5" d="M 268.5,259.5 C 271.5,261.833 274.167,264.5 276.5,267.5C 275.761,267.369 275.094,267.536 274.5,268C 257.605,285.062 240.605,301.896 223.5,318.5C 216.381,319.969 209.381,320.302 202.5,319.5C 204.857,319.663 207.19,319.497 209.5,319C 229.368,299.299 249.035,279.465 268.5,259.5 Z"/></g>
<g><path style="opacity:1" fill="#2e2e2e" d="M 339.5,260.5 C 341.113,260.944 342.28,261.944 343,263.5C 343.499,267.486 343.666,271.486 343.5,275.5C 343.167,279.167 341.167,281.167 337.5,281.5C 330.167,281.5 322.833,281.5 315.5,281.5C 316.952,280.698 318.618,280.198 320.5,280C 327.036,273.631 333.369,267.131 339.5,260.5 Z"/></g>
<g><path style="opacity:1" fill="#93b1df" d="M 276.5,267.5 C 276.833,267.5 277.167,267.5 277.5,267.5C 281.892,272.894 286.892,277.561 292.5,281.5C 297.167,281.5 301.833,281.5 306.5,281.5C 298.833,289.5 291.167,297.5 283.5,305.5C 275.981,305.175 268.648,305.508 261.5,306.5C 249.537,312.659 236.871,316.659 223.5,318.5C 240.605,301.896 257.605,285.062 274.5,268C 275.094,267.536 275.761,267.369 276.5,267.5 Z"/></g>
<g><path style="opacity:1" fill="#9fbbe5" d="M 306.5,281.5 C 309.5,281.5 312.5,281.5 315.5,281.5C 322.833,281.5 330.167,281.5 337.5,281.5C 329.833,289.5 322.167,297.5 314.5,305.5C 304.167,305.5 293.833,305.5 283.5,305.5C 291.167,297.5 298.833,289.5 306.5,281.5 Z"/></g>
<g><path style="opacity:0.998" fill="#d84635" d="M 53.5,254.5 C 53.5,269.167 53.5,283.833 53.5,298.5C 35.4928,299.097 17.4928,299.763 -0.5,300.5C -0.5,298.833 -0.5,297.167 -0.5,295.5C 4.15661,293.157 9.15661,291.657 14.5,291C 13.8333,290.667 13.1667,290.333 12.5,290C 14.6234,288.806 16.9568,288.14 19.5,288C 30.7016,276.631 42.0349,265.465 53.5,254.5 Z"/></g>
<g><path style="opacity:0.999" fill="#bdd4f1" d="M 385.5,263.5 C 385.5,277.833 385.5,292.167 385.5,306.5C 355.395,337.105 325.062,367.605 294.5,398C 296.18,398.347 297.18,399.347 297.5,401C 296.069,401.487 294.735,402.821 293.5,405C 297.167,405.333 300.833,405.667 304.5,406C 303.833,406.667 303.167,407.333 302.5,408C 303.738,407.923 304.738,408.089 305.5,408.5C 304.757,409.182 304.091,409.849 303.5,410.5C 299.154,410.666 294.821,410.499 290.5,410C 287.297,406.629 283.964,403.462 280.5,400.5C 277.833,397.5 275.167,394.5 272.5,391.5C 294.167,370.5 315.5,349.167 336.5,327.5C 340.665,327.59 342.998,325.59 343.5,321.5C 356.771,307.728 370.271,294.062 384,280.5C 384.173,274.652 384.673,268.985 385.5,263.5 Z"/></g>
<g><path style="opacity:0.999" fill="#cf3e3a" d="M 53.5,298.5 C 53.5,302.5 53.5,306.5 53.5,310.5C 49.441,312.298 45.1077,313.464 40.5,314C 41.5,314.333 42.5,314.667 43.5,315C 32.8754,319.761 21.542,322.094 9.5,322C 12.8333,322.333 16.1667,322.667 19.5,323C 12.8417,323.5 6.17499,323.666 -0.5,323.5C -0.5,315.833 -0.5,308.167 -0.5,300.5C 17.4928,299.763 35.4928,299.097 53.5,298.5 Z"/></g>
<g><path style="opacity:1" fill="#555555" d="M 111.5,306.5 C 137.842,306.167 164.175,306.5 190.5,307.5C 191.1,310.349 192.433,312.682 194.5,314.5C 196.131,316.643 198.131,318.31 200.5,319.5C 202.833,322.167 205.167,324.833 207.5,327.5C 181.833,327.5 156.167,327.5 130.5,327.5C 123.825,327.666 117.158,327.5 110.5,327C 109.667,326.167 108.833,325.333 108,324.5C 107.333,319.5 107.333,314.5 108,309.5C 108.72,307.944 109.887,306.944 111.5,306.5 Z"/></g>
<g><path style="opacity:1" fill="#202020" d="M 261.5,306.5 C 272.167,306.5 282.833,306.5 293.5,306.5C 286.833,313.5 280.167,320.5 273.5,327.5C 269.167,327.5 264.833,327.5 260.5,327.5C 243.167,327.5 225.833,327.5 208.5,327.5C 208.167,327.5 207.833,327.5 207.5,327.5C 205.167,324.833 202.833,322.167 200.5,319.5C 201.167,319.5 201.833,319.5 202.5,319.5C 209.381,320.302 216.381,319.969 223.5,318.5C 236.871,316.659 249.537,312.659 261.5,306.5 Z"/></g>
<g><path style="opacity:1" fill="#2c2c2c" d="M 293.5,306.5 C 297.514,306.334 301.514,306.501 305.5,307C 298.631,313.702 291.964,320.535 285.5,327.5C 281.5,327.5 277.5,327.5 273.5,327.5C 280.167,320.5 286.833,313.5 293.5,306.5 Z"/></g>
<g><path style="opacity:1" fill="#424243" d="M 261.5,306.5 C 268.648,305.508 275.981,305.175 283.5,305.5C 293.833,305.5 304.167,305.5 314.5,305.5C 321.5,305.5 328.5,305.5 335.5,305.5C 338.617,305.642 341.117,306.976 343,309.5C 343.499,313.486 343.666,317.486 343.5,321.5C 342.998,325.59 340.665,327.59 336.5,327.5C 324.5,327.5 312.5,327.5 300.5,327.5C 295.5,327.5 290.5,327.5 285.5,327.5C 291.964,320.535 298.631,313.702 305.5,307C 301.514,306.501 297.514,306.334 293.5,306.5C 282.833,306.5 272.167,306.5 261.5,306.5 Z"/></g>
<g><path style="opacity:0.995" fill="#c4dbf5" d="M 385.5,306.5 C 385.5,312.833 385.5,319.167 385.5,325.5C 361.368,349.132 337.368,372.965 313.5,397C 314.738,396.923 315.738,397.089 316.5,397.5C 313.972,398.816 313.972,399.983 316.5,401C 316.167,402 315.833,403 315.5,404C 317.793,405.695 320.127,406.362 322.5,406C 321.833,406.667 321.167,407.333 320.5,408C 322.279,407.021 323.945,407.354 325.5,409C 318.239,410.348 310.906,410.848 303.5,410.5C 304.091,409.849 304.757,409.182 305.5,408.5C 304.738,408.089 303.738,407.923 302.5,408C 303.167,407.333 303.833,406.667 304.5,406C 300.833,405.667 297.167,405.333 293.5,405C 294.735,402.821 296.069,401.487 297.5,401C 297.18,399.347 296.18,398.347 294.5,398C 325.062,367.605 355.395,337.105 385.5,306.5 Z"/></g>
<g><path style="opacity:1" fill="#c5353f" d="M 53.5,310.5 C 53.5,312.5 53.5,314.5 53.5,316.5C 53.5,321.5 53.5,326.5 53.5,331.5C 48.8228,331.835 44.1561,332.335 39.5,333C 41.5,333.333 43.5,333.667 45.5,334C 29.929,333.872 14.5957,334.705 -0.5,336.5C -0.5,332.167 -0.5,327.833 -0.5,323.5C 6.17499,323.666 12.8417,323.5 19.5,323C 16.1667,322.667 12.8333,322.333 9.5,322C 21.542,322.094 32.8754,319.761 43.5,315C 42.5,314.667 41.5,314.333 40.5,314C 45.1077,313.464 49.441,312.298 53.5,310.5 Z"/></g>
<g><path style="opacity:1" fill="#deedfd" d="M 130.5,327.5 C 156.167,327.5 181.833,327.5 207.5,327.5C 207.833,327.5 208.167,327.5 208.5,327.5C 215.964,335.465 223.631,343.298 231.5,351C 191.331,351.167 151.331,351.667 111.5,352.5C 109.887,352.944 108.72,353.944 108,355.5C 107.333,360.5 107.333,365.5 108,370.5C 109.129,372.141 110.629,373.141 112.5,373.5C 156.998,374.333 201.665,374.833 246.5,375C 239.833,381.667 233.167,388.333 226.5,395C 197.007,396.358 167.673,398.358 138.5,401C 110.508,402.166 82.5079,403 54.5,403.5C 54.5,400.833 54.5,398.167 54.5,395.5C 57.5184,395.665 60.5184,395.498 63.5,395C 86.035,372.632 108.368,350.132 130.5,327.5 Z"/></g>
<g><path style="opacity:1" fill="#95b0da" d="M 208.5,327.5 C 225.833,327.5 243.167,327.5 260.5,327.5C 252.833,335.5 245.167,343.5 237.5,351.5C 219.523,352.431 201.523,352.765 183.5,352.5C 159.5,352.5 135.5,352.5 111.5,352.5C 151.331,351.667 191.331,351.167 231.5,351C 223.631,343.298 215.964,335.465 208.5,327.5 Z"/></g>
<g><path style="opacity:1" fill="#a0bce5" d="M 260.5,327.5 C 264.833,327.5 269.167,327.5 273.5,327.5C 277.5,327.5 281.5,327.5 285.5,327.5C 290.5,327.5 295.5,327.5 300.5,327.5C 292.833,335.5 285.167,343.5 277.5,351.5C 264.167,351.5 250.833,351.5 237.5,351.5C 245.167,343.5 252.833,335.5 260.5,327.5 Z"/></g>
<g><path style="opacity:1" fill="#b1caec" d="M 300.5,327.5 C 312.5,327.5 324.5,327.5 336.5,327.5C 315.5,349.167 294.167,370.5 272.5,391.5C 266.167,385.833 260.167,379.833 254.5,373.5C 264.605,373.949 274.605,373.449 284.5,372C 285.126,371.25 285.626,370.416 286,369.5C 286.667,364.833 286.667,360.167 286,355.5C 284.871,353.859 283.371,352.859 281.5,352.5C 280.432,351.566 279.099,351.232 277.5,351.5C 285.167,343.5 292.833,335.5 300.5,327.5 Z"/></g>
<g><path style="opacity:1" fill="#bd3043" d="M 53.5,331.5 C 53.5,334.833 53.5,338.167 53.5,341.5C 48.1563,341.334 42.8229,341.501 37.5,342C 36.5,343 35.5,344 34.5,345C 23.1789,345.833 11.8456,346.333 0.5,346.5C 0.784479,348.415 0.451145,350.081 -0.5,351.5C -0.5,346.5 -0.5,341.5 -0.5,336.5C 14.5957,334.705 29.929,333.872 45.5,334C 43.5,333.667 41.5,333.333 39.5,333C 44.1561,332.335 48.8228,331.835 53.5,331.5 Z"/></g>
<g><path style="opacity:0.997" fill="#b82d45" d="M 53.5,341.5 C 53.5,345.167 53.5,348.833 53.5,352.5C 35.8333,353.167 18.1667,353.833 0.5,354.5C 0.801552,357.059 0.468218,359.393 -0.5,361.5C -0.5,358.167 -0.5,354.833 -0.5,351.5C 0.451145,350.081 0.784479,348.415 0.5,346.5C 11.8456,346.333 23.1789,345.833 34.5,345C 35.5,344 36.5,343 37.5,342C 42.8229,341.501 48.1563,341.334 53.5,341.5 Z"/></g>
<g><path style="opacity:0.999" fill="#b22948" d="M 53.5,352.5 C 53.5,356.167 53.5,359.833 53.5,363.5C 50.3801,364.86 47.0468,365.693 43.5,366C 29.1887,367.142 14.8554,367.642 0.5,367.5C 0.801552,370.059 0.468218,372.393 -0.5,374.5C -0.5,370.167 -0.5,365.833 -0.5,361.5C 0.468218,359.393 0.801552,357.059 0.5,354.5C 18.1667,353.833 35.8333,353.167 53.5,352.5 Z"/></g>
<g><path style="opacity:1" fill="#555555" d="M 111.5,352.5 C 135.5,352.5 159.5,352.5 183.5,352.5C 183.5,359.5 183.5,366.5 183.5,373.5C 159.833,373.5 136.167,373.5 112.5,373.5C 110.629,373.141 109.129,372.141 108,370.5C 107.333,365.5 107.333,360.5 108,355.5C 108.72,353.944 109.887,352.944 111.5,352.5 Z"/></g>
<g><path style="opacity:1" fill="#4e4f4f" d="M 237.5,351.5 C 250.833,351.5 264.167,351.5 277.5,351.5C 279.099,351.232 280.432,351.566 281.5,352.5C 277.167,352.5 272.833,352.5 268.5,352.5C 256.829,352.333 245.162,352.5 233.5,353C 239.035,358.703 244.702,364.203 250.5,369.5C 251.5,370.833 252.5,372.167 253.5,373.5C 230.167,373.5 206.833,373.5 183.5,373.5C 183.5,366.5 183.5,359.5 183.5,352.5C 201.523,352.765 219.523,352.431 237.5,351.5 Z"/></g>
<g><path style="opacity:1" fill="#313131" d="M 268.5,352.5 C 263.131,358.87 257.131,364.537 250.5,369.5C 244.702,364.203 239.035,358.703 233.5,353C 245.162,352.5 256.829,352.333 268.5,352.5 Z"/></g>
<g><path style="opacity:1" fill="#404040" d="M 268.5,352.5 C 272.833,352.5 277.167,352.5 281.5,352.5C 283.371,352.859 284.871,353.859 286,355.5C 286.667,360.167 286.667,364.833 286,369.5C 285.626,370.416 285.126,371.25 284.5,372C 274.605,373.449 264.605,373.949 254.5,373.5C 254.167,373.5 253.833,373.5 253.5,373.5C 252.5,372.167 251.5,370.833 250.5,369.5C 257.131,364.537 263.131,358.87 268.5,352.5 Z"/></g>
<g><path style="opacity:1" fill="#ad2a4d" d="M 53.5,316.5 C 53.8333,316.5 54.1667,316.5 54.5,316.5C 54.5,339.833 54.5,363.167 54.5,386.5C 54.1667,386.5 53.8333,386.5 53.5,386.5C 53.5,383.5 53.5,380.5 53.5,377.5C 36.83,377.333 20.1633,377.5 3.5,378C 4.83333,378.333 6.16667,378.667 7.5,379C 5.23601,379.236 3.06934,379.736 1,380.5C 0.503354,382.81 0.336688,385.143 0.5,387.5C 0.767809,389.099 0.434475,390.432 -0.5,391.5C -0.5,385.833 -0.5,380.167 -0.5,374.5C 0.468218,372.393 0.801552,370.059 0.5,367.5C 14.8554,367.642 29.1887,367.142 43.5,366C 47.0468,365.693 50.3801,364.86 53.5,363.5C 53.5,359.833 53.5,356.167 53.5,352.5C 53.5,348.833 53.5,345.167 53.5,341.5C 53.5,338.167 53.5,334.833 53.5,331.5C 53.5,326.5 53.5,321.5 53.5,316.5 Z"/></g>
<g><path style="opacity:1" fill="#d7e8fb" d="M 112.5,373.5 C 136.167,373.5 159.833,373.5 183.5,373.5C 206.833,373.5 230.167,373.5 253.5,373.5C 253.833,373.5 254.167,373.5 254.5,373.5C 260.167,379.833 266.167,385.833 272.5,391.5C 275.167,394.5 277.833,397.5 280.5,400.5C 278.369,401.314 276.036,401.814 273.5,402C 240.173,402.99 206.84,403.656 173.5,404C 169.351,405.269 165.018,405.935 160.5,406C 141.833,406.667 123.167,407.333 104.5,408C 103.833,408.667 103.167,409.333 102.5,410C 86.5023,410.643 70.5023,411.143 54.5,411.5C 54.5,408.833 54.5,406.167 54.5,403.5C 82.5079,403 110.508,402.166 138.5,401C 167.673,398.358 197.007,396.358 226.5,395C 233.167,388.333 239.833,381.667 246.5,375C 201.665,374.833 156.998,374.333 112.5,373.5 Z"/></g>
<g><path style="opacity:1" fill="#a5224d" d="M 53.5,386.5 C 53.5,386.833 53.5,387.167 53.5,387.5C 35.8333,387.5 18.1667,387.5 0.5,387.5C 0.336688,385.143 0.503354,382.81 1,380.5C 3.06934,379.736 5.23601,379.236 7.5,379C 6.16667,378.667 4.83333,378.333 3.5,378C 20.1633,377.5 36.83,377.333 53.5,377.5C 53.5,380.5 53.5,383.5 53.5,386.5 Z"/></g>
<g><path style="opacity:1" fill="#9e1f50" d="M 0.5,387.5 C 18.1667,387.5 35.8333,387.5 53.5,387.5C 53.5,391.833 53.5,396.167 53.5,400.5C 38.1505,400.47 22.8172,400.97 7.5,402C 13.1667,402.333 18.8333,402.667 24.5,403C 16.5069,403.5 8.50694,403.666 0.5,403.5C 0.5,406.5 0.5,409.5 0.5,412.5C 0.5,415.833 0.5,419.167 0.5,422.5C 0.5,427.167 0.5,431.833 0.5,436.5C 0.166667,436.5 -0.166667,436.5 -0.5,436.5C -0.5,421.5 -0.5,406.5 -0.5,391.5C 0.434475,390.432 0.767809,389.099 0.5,387.5 Z"/></g>
<g><path style="opacity:1" fill="#981d52" d="M 53.5,400.5 C 53.5,404.5 53.5,408.5 53.5,412.5C 35.8333,412.5 18.1667,412.5 0.5,412.5C 0.5,409.5 0.5,406.5 0.5,403.5C 8.50694,403.666 16.5069,403.5 24.5,403C 18.8333,402.667 13.1667,402.333 7.5,402C 22.8172,400.97 38.1505,400.47 53.5,400.5 Z"/></g>
<g><path style="opacity:1" fill="#d1e4f9" d="M 385.5,325.5 C 385.5,353.833 385.5,382.167 385.5,410.5C 296.57,411.331 207.57,411.831 118.5,412C 109.575,415.447 105.908,421.947 107.5,431.5C 107.5,440.833 107.5,450.167 107.5,459.5C 216.57,459.169 325.57,459.502 434.5,460.5C 433.935,464.537 432.601,468.203 430.5,471.5C 430.5,470.5 430.5,469.5 430.5,468.5C 322.833,468.5 215.167,468.5 107.5,468.5C 107.784,466.585 107.451,464.919 106.5,463.5C 106.5,461.833 106.5,460.167 106.5,458.5C 106.5,448.5 106.5,438.5 106.5,428.5C 89.0865,428.646 71.7532,429.312 54.5,430.5C 54.5,424.167 54.5,417.833 54.5,411.5C 70.5023,411.143 86.5023,410.643 102.5,410C 103.167,409.333 103.833,408.667 104.5,408C 123.167,407.333 141.833,406.667 160.5,406C 165.018,405.935 169.351,405.269 173.5,404C 206.84,403.656 240.173,402.99 273.5,402C 276.036,401.814 278.369,401.314 280.5,400.5C 283.964,403.462 287.297,406.629 290.5,410C 294.821,410.499 299.154,410.666 303.5,410.5C 310.906,410.848 318.239,410.348 325.5,409C 323.945,407.354 322.279,407.021 320.5,408C 321.167,407.333 321.833,406.667 322.5,406C 320.127,406.362 317.793,405.695 315.5,404C 315.833,403 316.167,402 316.5,401C 313.972,399.983 313.972,398.816 316.5,397.5C 315.738,397.089 314.738,396.923 313.5,397C 337.368,372.965 361.368,349.132 385.5,325.5 Z"/></g>
<g><path style="opacity:1" fill="#931b54" d="M 0.5,412.5 C 18.1667,412.5 35.8333,412.5 53.5,412.5C 53.5,415.833 53.5,419.167 53.5,422.5C 35.8333,422.5 18.1667,422.5 0.5,422.5C 0.5,419.167 0.5,415.833 0.5,412.5 Z"/></g>
<g><path style="opacity:0.998" fill="#eaf2fe" d="M 385.5,410.5 C 399.559,410.071 413.559,410.571 427.5,412C 435.939,417.127 439.272,424.627 437.5,434.5C 436.596,433.791 436.263,432.791 436.5,431.5C 326.833,431.5 217.167,431.5 107.5,431.5C 105.908,421.947 109.575,415.447 118.5,412C 207.57,411.831 296.57,411.331 385.5,410.5 Z"/></g>
<g><path style="opacity:0.999" fill="#e3effe" d="M 107.5,431.5 C 217.167,431.5 326.833,431.5 436.5,431.5C 436.263,432.791 436.596,433.791 437.5,434.5C 438.07,443.493 437.07,452.16 434.5,460.5C 325.57,459.502 216.57,459.169 107.5,459.5C 107.5,450.167 107.5,440.833 107.5,431.5 Z"/></g>
<g><path style="opacity:1" fill="#8c1b58" d="M 53.5,386.5 C 53.8333,386.5 54.1667,386.5 54.5,386.5C 54.5,389.5 54.5,392.5 54.5,395.5C 54.5,398.167 54.5,400.833 54.5,403.5C 54.5,406.167 54.5,408.833 54.5,411.5C 54.5,417.833 54.5,424.167 54.5,430.5C 54.8264,439.349 54.493,448.016 53.5,456.5C 42.8281,456.667 32.1615,456.5 21.5,456C 10.4561,453.787 3.45609,447.287 0.5,436.5C 0.5,431.833 0.5,427.167 0.5,422.5C 18.1667,422.5 35.8333,422.5 53.5,422.5C 53.5,419.167 53.5,415.833 53.5,412.5C 53.5,408.5 53.5,404.5 53.5,400.5C 53.5,396.167 53.5,391.833 53.5,387.5C 53.5,387.167 53.5,386.833 53.5,386.5 Z"/></g>
<g><path style="opacity:1" fill="#bad0ef" d="M 106.5,458.5 C 89.1667,458.5 71.8333,458.5 54.5,458.5C 54.5,463.833 54.5,469.167 54.5,474.5C 54.5,479.167 54.5,483.833 54.5,488.5C 53.5056,478.013 53.1722,467.346 53.5,456.5C 54.493,448.016 54.8264,439.349 54.5,430.5C 71.7532,429.312 89.0865,428.646 106.5,428.5C 106.5,438.5 106.5,448.5 106.5,458.5 Z"/></g>
<g><path style="opacity:1" fill="#adc6ea" d="M 106.5,458.5 C 106.5,460.167 106.5,461.833 106.5,463.5C 106.5,466.833 106.5,470.167 106.5,473.5C 89.1535,473.346 71.8201,473.679 54.5,474.5C 54.5,469.167 54.5,463.833 54.5,458.5C 71.8333,458.5 89.1667,458.5 106.5,458.5 Z"/></g>
<g><path style="opacity:1" fill="#c8ddf6" d="M 106.5,463.5 C 107.451,464.919 107.784,466.585 107.5,468.5C 215.167,468.5 322.833,468.5 430.5,468.5C 430.5,469.5 430.5,470.5 430.5,471.5C 430.25,473.674 429.25,475.341 427.5,476.5C 320.457,476.162 213.457,475.162 106.5,473.5C 106.5,470.167 106.5,466.833 106.5,463.5 Z"/></g>
<g><path style="opacity:1" fill="#bfd6f2" d="M 106.5,473.5 C 213.457,475.162 320.457,476.162 427.5,476.5C 426.617,479.704 424.95,482.371 422.5,484.5C 317.294,483.162 211.961,481.829 106.5,480.5C 106.5,478.167 106.5,475.833 106.5,473.5 Z"/></g>
<g><path style="opacity:1" fill="#b8d0f0" d="M 106.5,480.5 C 211.961,481.829 317.294,483.162 422.5,484.5C 421.136,486.191 419.803,487.858 418.5,489.5C 314.839,487.502 210.839,486.836 106.5,487.5C 106.5,485.167 106.5,482.833 106.5,480.5 Z"/></g>
<g><path style="opacity:1" fill="#a2bde6" d="M 106.5,473.5 C 106.5,475.833 106.5,478.167 106.5,480.5C 106.5,482.833 106.5,485.167 106.5,487.5C 106.405,489.786 105.738,491.786 104.5,493.5C 88.6754,492.504 72.6754,492.17 56.5,492.5C 56.5,493.833 56.5,495.167 56.5,496.5C 54.9605,494.162 54.2938,491.495 54.5,488.5C 54.5,483.833 54.5,479.167 54.5,474.5C 71.8201,473.679 89.1535,473.346 106.5,473.5 Z"/></g>
<g><path style="opacity:1" fill="#adc7eb" d="M 106.5,487.5 C 210.839,486.836 314.839,487.502 418.5,489.5C 415.129,492.871 411.463,495.871 407.5,498.5C 306.335,497.501 205.001,497.167 103.5,497.5C 104.234,496.292 104.567,494.959 104.5,493.5C 105.738,491.786 106.405,489.786 106.5,487.5 Z"/></g>
<g><path style="opacity:1" fill="#a1bee6" d="M 103.5,497.5 C 205.001,497.167 306.335,497.501 407.5,498.5C 399.339,505.006 390.005,509.006 379.5,510.5C 380.263,509.732 381.263,509.232 382.5,509C 285.421,508.338 188.421,508.338 91.5,509C 96.6618,506.337 100.662,502.504 103.5,497.5 Z"/></g>
<g><path style="opacity:1" fill="#99b7e3" d="M 104.5,493.5 C 104.567,494.959 104.234,496.292 103.5,497.5C 100.662,502.504 96.6618,506.337 91.5,509C 188.421,508.338 285.421,508.338 382.5,509C 381.263,509.232 380.263,509.732 379.5,510.5C 378.833,510.5 378.5,510.833 378.5,511.5C 276.833,511.5 175.167,511.5 73.5,511.5C 65.6819,509.02 60.0152,504.02 56.5,496.5C 56.5,495.167 56.5,493.833 56.5,492.5C 72.6754,492.17 88.6754,492.504 104.5,493.5 Z"/></g>
</svg>
